<svg height="20" viewBox="0 0 141 20" width="141" xmlns="http://www.w3.org/2000/svg"><g fill="none" fill-rule="evenodd" transform="translate(.006536 .402685)"><path d="m49.0163399 0c5.2607062 0 9.5261438 4.37543825 9.5261438 9.77181208 0 5.39637382-4.2654376 9.77181212-9.5261438 9.77181212-5.2607063 0-9.5261438-4.3754383-9.5261438-9.77181212 0-5.39637383 4.2654375-9.77181208 9.5261438-9.77181208z" fill="#6a11cb"/><path d="m6.03235436 3.18023366c3.09351506 0 4.48559684 2.39693761 4.48559684 4.36164056 0 1.80752672-1.19873709 4.34199358-4.52426578 4.34199358h-2.97750824v4.0669351h-3.01617718v-12.77056924zm1.41141625 5.44222719c.27068257-.3339995.36735491-.78588118.36735491-1.08058663 0-.31435247-.11600681-.76623415-.40602385-1.10023365-.30935151-.35364654-.7540443-.51082277-1.37274731-.51082277h-3.01617718v3.20246582h2.97750824c.40602386 0 .73470983-.05894109 1.0053924-.17682327.17401022-.09823514.3093515-.19647029.44469279-.3339995zm24.72233769-1.08058663c0 1.43423316-.7540443 3.33999508-2.7454946 4.04728808l2.7068257 4.3616406h-3.3835321l-2.6294878-4.0669351h-1.4307507v4.0669351h-3.0161772v-12.77056924h6.0130199c3.0935151 0 4.4855968 2.39693761 4.4855968 4.36164056zm-7.4824395-1.61105642v3.20246582h2.9775082c.3866894 0 .7347099-.05894109.986058-.17682327.1740102-.09823514.3286859-.19647029.4446927-.3339995.2706826-.3339995.367355-.78588118.367355-1.08058663 0-.31435247-.0966724-.76623415-.4060239-1.10023365-.290017-.35364654-.7347098-.51082277-1.3727473-.51082277zm24.4323207-2.69164305c3.5768768 0 6.4770471 2.94705443 6.4770471 6.5817549 0 3.63470045-2.9001703 6.58175495-6.4770471 6.58175495s-6.4770472-2.9470545-6.4770472-6.58175495c0-3.63470047 2.9001704-6.5817549 6.4770472-6.5817549zm29.4786171 2.0629381-2.1461261-2.16117325-4.1569108 4.20446433-4.1375764-4.20446433-2.1461261 2.16117325 4.1569109 4.22411136-4.1569109 4.22411139 2.1267916 2.1611732 4.1569109-4.2241113 4.1569108 4.2241113 2.1461261-2.1611732-4.1569108-4.22411139zm10.8595234-2.12187919v12.77056924h3.0161772v-12.77056924zm20.546092 4.38128759-6.670391-4.38128759v12.77056924h3.016177v-7.13187175l3.615545 2.39693765 3.731553-2.41658468v7.15151878h3.016177v-12.77056924zm27.506502 8.38928165-.90872-1.7878797h-4.736945l-.90872 1.7878797h-3.480205l6.767064-12.77056924 6.74773 12.77056924zm-4.427594-4.1848173h2.300802l-1.140734-2.23976139z" fill="#000"/></g></svg>