<svg height="16" viewBox="0 0 111 16" width="111" xmlns="http://www.w3.org/2000/svg"><g fill="none" fill-rule="evenodd"><path d="m38.6978523.13842282c4.1599884 0 7.532952 3.36384353 7.532952 7.51258389 0 4.14874039-3.3729636 7.51258389-7.532952 7.51258389-4.1599885 0-7.5329521-3.3638435-7.5329521-7.51258389 0-4.14874036 3.3729636-7.51258389 7.5329521-7.51258389z" fill="#6a11cb"/><path d="m4.95729847 2.54697987c2.42265796 0 3.51285404 1.84228187 3.51285404 3.35234899 0 1.38926174-.93877996 3.33724832-3.54313726 3.33724832h-2.33180828v3.12583892h-2.3620915v-9.81543623zm1.1053377 4.1828859c.21198257-.25671141.28769063-.60402684.28769063-.83053691 0-.24161074-.09084968-.58892618-.31797386-.84563758-.24226579-.27181209-.59052287-.39261745-1.07505447-.39261745h-2.3620915v2.46140939h2.33180828c.31797386 0 .57538126-.04530201.78736383-.13590604.13627451-.07550335.2422658-.15100671.34825709-.25671141zm19.36107213-.83053691c0 1.10234899-.5905229 2.56711409-2.150109 3.11073825l2.1198257 3.35234899h-2.6497821l-2.0592592-3.12583892h-1.1204794v3.12583892h-2.3620915v-9.81543623h4.7090414c2.422658 0 3.5128541 1.84228187 3.5128541 3.35234899zm-5.859804-1.23825503v2.46140939h2.3318083c.3028323 0 .5753813-.04530201.7722222-.13590604.1362746-.07550335.2574075-.15100671.3482571-.25671141.2119826-.25671141.2876907-.60402684.2876907-.83053691 0-.24161074-.0757081-.58892618-.3179739-.84563758-.2271242-.27181209-.5753813-.39261745-1.0750545-.39261745zm19.133948-2.06879195c2.8011982 0 5.0724401 2.26510067 5.0724401 5.05872483 0 2.79362419-2.2712419 5.05872479-5.0724401 5.05872479-2.8011983 0-5.0724401-2.2651006-5.0724401-5.05872479 0-2.79362416 2.2712418-5.05872483 5.0724401-5.05872483zm23.0859087 1.58557047-1.680719-1.66107383-3.2554466 3.23154363-3.240305-3.23154363-1.680719 1.66107383 3.2554467 3.24664429-3.2554467 3.24664426 1.6655774 1.6610739 3.2554466-3.24664433 3.2554466 3.24664433 1.680719-1.6610739-3.2554466-3.24664426zm8.5045361-1.63087248v9.81543623h2.3620915v-9.81543623zm16.0904839 3.36744966-5.2238562-3.36744966v9.81543623h2.3620915v-5.48154362l2.8314815 1.84228188 2.9223311-1.85738255v5.49664429h2.3620915v-9.81543623zm21.541464 6.44798657-.711656-1.3741611h-3.709694l-.711656 1.3741611h-2.72549l5.299564-9.81543623 5.284422 9.81543623zm-3.467429-3.21644295h1.801852l-.893355-1.72147651z" fill="#fff"/></g></svg>