<svg height="50" viewBox="0 0 365 50" width="365" xmlns="http://www.w3.org/2000/svg"><g fill="none" fill-rule="evenodd"><path d="m127.016649.125c13.73694 0 24.875 11.1380597 24.875 24.875s-11.13806 24.875-24.875 24.875-24.875-11.1380597-24.875-24.875 11.13806-24.875 24.875-24.875z" fill="#d6d6d6" opacity=".2"/><path d="m15.6 8.1c8 0 11.6 6.1 11.6 11.1 0 4.6-3.1 11.05-11.7 11.05h-7.7v10.35h-7.8v-32.5zm3.65 13.85c.7-.85.95-2 .95-2.75 0-.8-.3-1.95-1.05-2.8-.8-.9-1.95-1.3-3.55-1.3h-7.8v8.15h7.7c1.05 0 1.9-.15 2.6-.45.45-.25.8-.5 1.15-.85zm63.9333244-2.75c0 3.65-1.95 8.5-7.1 10.3l7 11.1h-8.75l-6.8-10.35h-3.7v10.35h-7.8v-32.5h15.55c8 0 11.6 6.1 11.6 11.1zm-19.35-4.1v8.15h7.7c1 0 1.9-.15 2.55-.45.45-.25.85-.5 1.15-.85.7-.85.95-2 .95-2.75 0-.8-.25-1.95-1.05-2.8-.75-.9-1.9-1.3-3.55-1.3zm63.1833246-6.85c9.25 0 16.75 7.5 16.75 16.75s-7.5 16.75-16.75 16.75-16.75-7.5-16.75-16.75 7.5-16.75 16.75-16.75zm76.233324 5.25-5.55-5.5-10.75 10.7-10.7-10.7-5.55 5.5 10.75 10.75-10.75 10.75 5.5 5.5 10.75-10.75 10.75 10.75 5.55-5.5-10.75-10.75zm28.083325-5.4v32.5h7.8v-32.5zm53.133324 11.15-17.25-11.15v32.5h7.8v-18.15l9.35 6.1 9.65-6.15v18.2h7.8v-32.5zm71.133325 21.35-2.35-4.55h-12.25l-2.35 4.55h-9l17.5-32.5 17.45 32.5zm-11.45-10.65h5.95l-2.95-5.7z" fill="#fff"/></g></svg>