<svg width="304" height="172" viewBox="0 0 119 22" fill="none" xmlns="http://www.w3.org/2000/svg">
<path fill-rule="evenodd" clip-rule="evenodd" d="M20.7072 0H17.1937V21.3426H20.7072V0ZM0 13.8298C0 18.6888 2.31741 21.38 6.57845 21.38H14.353V17.9413H6.87747C4.52269 17.9413 3.55087 16.7452 3.55087 13.8298C3.55087 10.8769 4.52269 9.68085 6.87747 9.68085H14.353V6.27949H6.57845C2.31741 6.27949 0 8.97068 0 13.8298ZM30.2011 6.27949H33.2286C37.4149 6.27949 39.7697 9.04543 39.7697 13.8298C39.7697 18.6141 37.3775 21.38 33.1913 21.38H30.1637C25.9026 21.38 23.5852 18.6888 23.5852 13.8298C23.5852 8.97068 25.94 6.27949 30.2011 6.27949ZM32.9296 17.9413C35.2844 17.9413 36.2562 16.7452 36.2562 13.8298C36.2562 10.8769 35.3218 9.68085 32.9296 9.68085H30.4253C28.0705 9.68085 27.0987 10.8769 27.0987 13.8298C27.0987 16.7452 28.0705 17.9413 30.4253 17.9413H32.9296ZM55.0198 15.2501C55.0198 16.8947 53.7863 17.9413 51.768 17.9413H49.4132C47.3948 17.9413 46.1239 16.8947 46.1239 15.2501V6.27949H42.6105V15.3622C42.6105 19.0626 45.1147 21.38 49.1889 21.38H51.8801C55.9542 21.38 58.4585 19.0626 58.4585 15.3622V6.27949H55.0198V15.2501ZM62.4953 2.84067H66.0088V6.27941H70.0082V9.68077H66.0088V16.2218C66.0088 17.7917 66.5695 18.0907 67.6534 18.0907H69.9708V21.3426H67.0554C63.7661 21.3426 62.4953 19.8848 62.4953 16.0723V9.68077H60.5143V6.27941H62.4953V2.84067ZM75.6148 17.0442H71.9144V21.38H75.6148V17.0442ZM79.1283 6.27949H88.1363C91.575 6.27949 93.4813 8.07362 93.4813 11.3628V18.1282C93.4813 20.2213 92.958 21.3427 90.1921 21.3427H83.4267C80.0627 21.3427 78.2686 19.698 78.2686 16.6331C78.2686 13.6429 79.988 12.1851 83.4641 12.1851H90.0426V11.4002C90.0426 10.6153 89.7062 9.68085 88.0989 9.68085H79.1283V6.27949ZM90.0426 17.4928V15.0632H83.5389C81.969 15.0632 81.7447 15.736 81.7447 16.4836C81.7447 17.119 81.8942 17.9413 83.4641 17.9413H89.5567C89.9678 17.9413 90.0426 17.8292 90.0426 17.4928ZM96.9574 10.8022V21.3427H100.471V11.2507C100.471 10.1294 100.919 9.68085 102.041 9.68085H107.423V6.27949H101.181C98.2282 6.27949 96.9574 7.62508 96.9574 10.8022ZM118.3 6.27941V9.68077H114.338V16.2218C114.338 17.7917 114.899 18.0907 115.983 18.0907H118.263V21.3426H115.347C112.058 21.3426 110.787 19.8848 110.787 16.0723V9.68077H108.806V6.27941H110.787V2.84067H114.301V6.27941H118.3Z" fill="url(#paint0_linear)"/>
<defs>
<linearGradient id="paint0_linear" x1="-7.36613" y1="39.6563" x2="132.312" y2="33.5196" gradientUnits="userSpaceOnUse">
<stop stop-color="#fff"/>
<stop offset="0.510417" stop-color="#fff"/>
<stop offset="1" stop-color="#fff"/>
</linearGradient>
</defs>
</svg>
