<svg id="Layer_1" data-name="Layer 1" xmlns="http://www.w3.org/2000/svg" width="304" height="172" viewBox="0 0 214.99 38.98"><defs><style>.cls-1{fill:#fff;}</style></defs><path class="cls-1" d="M36.51,0,20.92,1.33a2.28,2.28,0,0,0-1.69,3.58l8.92,12.86a2.29,2.29,0,0,0,4-.33L38.77,3.29A2.28,2.28,0,0,0,36.51,0Z"/><path class="cls-1" d="M0,2.48l1.29,15.6a2.3,2.3,0,0,0,3.59,1.69l12.85-8.92a2.29,2.29,0,0,0-.32-3.95L3.28.22A2.29,2.29,0,0,0,0,2.48Z"/><path class="cls-1" d="M2.48,39l15.6-1.3a2.29,2.29,0,0,0,1.69-3.59L10.85,21.23a2.28,2.28,0,0,0-3.95.33L.22,35.71A2.3,2.3,0,0,0,2.48,39Z"/><path class="cls-1" d="M39,36.5,37.69,20.91a2.29,2.29,0,0,0-3.59-1.69L21.24,28.13a2.3,2.3,0,0,0,.33,4l14.15,6.67A2.29,2.29,0,0,0,39,36.5Z"/><path class="cls-1" d="M51.51,23.55v-.66c0-6.63,4.26-10.39,9.17-10.39,3.68,0,5.44,1.47,6.3,2.9h.74V4.72h5.15V33.37H67.8V30.91h-.74c-.94,1.56-2.7,3-6.38,3C55.81,33.94,51.51,30.18,51.51,23.55Zm16.29-.12V23c0-3.93-2.37-6-5.57-6s-5.56,2.09-5.56,6v.41c0,3.92,2.41,6,5.56,6S67.8,27.35,67.8,23.43Z"/><path class="cls-1" d="M76.49,23.47V23c0-6.39,4.1-10.48,10.15-10.48S96.5,16.75,96.5,23v1.76H81.73a4.89,4.89,0,0,0,5.16,4.7,4.68,4.68,0,0,0,4.75-3l4.21,2.21c-1.15,2.17-3.56,5.32-9.13,5.32C80.63,33.94,76.49,29.85,76.49,23.47Zm14.78-2.58C91,18.56,89.26,17,86.6,17a4.47,4.47,0,0,0-4.83,3.89Z"/><path class="cls-1" d="M103.23,17.33H98.07V13.07h5.16V9.31a4.28,4.28,0,0,1,4.5-4.59h5.32V9h-3.52c-.73,0-1.14.41-1.14,1.23v2.86h5.32v4.26h-5.32v16h-5.16Z"/><path class="cls-1" d="M115.28,27.44c0-4.18,3.28-6.35,7.86-6.35h5.57V20c0-1.89-1.15-3.28-3.77-3.28s-3.72,1.31-4.09,3.15l-4.75-1.59c1-3.07,3.64-5.73,8.92-5.73s8.68,2.74,8.68,7.82v7.57c0,.81.41,1.22,1.14,1.22h1.64v4.26H133c-2,0-3.48-1.06-3.48-2.7v0h-.77c-.37,1-1.64,3.31-5.9,3.31S115.28,31.61,115.28,27.44Zm13.43-2.09v-.41h-5.2c-1.93,0-3.07.86-3.07,2.33s1.14,2.5,3.35,2.5C126.66,29.77,128.71,28.05,128.71,25.35Z"/><path class="cls-1" d="M138,23.51v-.58c0-6.63,4.63-10.43,10.52-10.43s9.21,3.35,10.07,7.86l-5,1.06a4.61,4.61,0,0,0-5-4.34c-3.11,0-5.48,2.09-5.48,5.94v.41c0,3.84,2.37,5.93,5.48,5.93s4.63-1.76,5.08-4.38l5,1.19c-1.06,4.38-4.38,7.77-10.19,7.77S138,30.14,138,23.51Z"/><path class="cls-1" d="M165.32,28.79V17.33h-5.08V13.07h5.08V6.77h5.15v6.3H176v4.26h-5.57V27.89c0,.81.41,1.22,1.15,1.22h3.93v4.26h-5.73A4.27,4.27,0,0,1,165.32,28.79Z"/><path class="cls-1" d="M178,23.55v-.66c0-6.54,4.58-10.39,10.64-10.39s10.64,3.85,10.64,10.39v.66c0,6.55-4.59,10.39-10.64,10.39S178,30.1,178,23.55Zm16.12-.12V23c0-3.81-2.29-5.94-5.48-5.94s-5.49,2.13-5.49,5.94v.41c0,3.8,2.34,5.93,5.49,5.93S194.09,27.23,194.09,23.43Z"/><path class="cls-1" d="M202.8,13.07h5.07v2.29h.74c.57-1.63,2-2.37,3.93-2.37H215v4.58h-2.53c-2.62,0-4.51,1.39-4.51,4.26V33.37H202.8Z"/></svg>