<svg fill="none" height="172" viewBox="0 0 220 27" width="304" xmlns="http://www.w3.org/2000/svg">
<g stroke="#fff" stroke-linecap="round" stroke-miterlimit="10"><g stroke-width="6.20669">
<path d="m21.3742 22.9537v-4.8733c0-4.8026-3.8845-8.68709-8.6871-8.68709-4.80263 0-8.6871 3.88449-8.6871 8.68709v4.8733"/>
<path d="m38.7485 22.9537v-4.8733c0-4.8026-3.8845-8.68709-8.6871-8.68709-4.8027 0-8.6871 3.88449-8.6871 8.68709v4.8733"/>
<path d="m123.289 22.9537v-4.8733c0-4.8026-3.885-8.68709-8.687-8.68709-4.803 0-8.687 3.88449-8.687 8.68709v4.8733"/>
<path d="m140.592 22.9537v-4.8733c0-4.8026-3.884-8.68709-8.687-8.68709-4.802 0-8.687 3.88449-8.687 8.68709v4.8733"/>
<path d="m167.784 22.9537v-4.8733c0-4.8026-3.885-8.68709-8.687-8.68709-4.803 0-8.688 3.88449-8.688 8.68709v4.8733"/>
<path d="m185.158 22.9537v-4.8733c0-4.8026-3.885-8.68709-8.687-8.68709-4.803 0-8.687 3.88449-8.687 8.68709v4.8733"/>
<path d="m86.7747 22.9537v-4.8733c0-4.8026-3.8845-8.68709-8.6871-8.68709s-8.6871 3.88449-8.6871 8.68709v4.8733"/>
</g><path d="m47.0117 16.1736c0-3.8845 3.1076-6.99208 6.9921-6.99208 3.8844 0 6.992 3.10758 6.992 6.99208 0 3.8844-3.1782 6.992-6.992 6.992-3.8845 0-6.9921-3.1782-6.9921-6.992z" stroke-width="5.54138"/>
<path d="m194.339 16.1736c0-3.8845 3.108-6.99208 6.992-6.99208 3.885 0 6.992 3.10758 6.992 6.99208 0 3.8844-3.107 6.992-6.992 6.992-3.813 0-6.992-3.1782-6.992-6.992z" stroke-width="5.54138"/>
<path d="m96.2388 9.39331v13.56039" stroke-width="6.20669"/></g><path d="m218.917 3.74321-3.672-3.601948c-.071-.0706265-.212-.141262-.283-.141262-.07 0-.212.0706355-.282.141262l-3.673 3.601948c-.141.14126-.141.2119-.07.28253.07.07063.07.14124.282.14124h.424v3.17821c0 .35313.282.63563.636.63563h1.907 1.836 1.907c.353 0 .565-.2825.565-.63563v-3.17821h.423c.142 0 .212-.07061.283-.14124-.141-.07063-.141-.14127-.283-.28253z" fill="#fff"/></svg>