<svg id="Component_26_1" data-name="Component 26 – 1" xmlns="http://www.w3.org/2000/svg" xmlns:xlink="http://www.w3.org/1999/xlink" width="304" height="172" viewBox="0 0 403.203 94.502">
  <defs>
    <linearGradient id="linear-gradient" x1="-0.232" y1="1.703" x2="1.666" y2="-1.343" gradientUnits="objectBoundingBox">
      <stop offset="0.13" stop-color="#fff"/>
      <stop offset="1" stop-color="#fff"/>
    </linearGradient>
    <linearGradient id="linear-gradient-2" x1="-0.292" y1="8.303" x2="1.055" y2="-4.444" xlink:href="#linear-gradient"/>
    <linearGradient id="linear-gradient-3" x1="-0.214" y1="7.567" x2="1.132" y2="-5.181" xlink:href="#linear-gradient"/>
    <linearGradient id="linear-gradient-4" x1="-0.211" y1="1.878" x2="1.686" y2="-1.167" xlink:href="#linear-gradient"/>
    <linearGradient id="linear-gradient-5" x1="-0.873" y1="3.914" x2="2.069" y2="-3.603" xlink:href="#linear-gradient"/>
  </defs>
  <g id="Component_25_1" data-name="Component 25 – 1">
    <path id="Path_23122" data-name="Path 23122" d="M19.922,64.6,40.3,76.376v9.766L12.545,70.112v-46l5.5-3.174-2.021-3.5L8.5,21.782V72.444l35.835,20.7v-19.1L21.944,61.1Z" transform="translate(-8.504 1.36)" fill="url(#linear-gradient)"/>
    <path id="Path_23123" data-name="Path 23123" d="M40.8,13.17l23.22,13.422,2.021-3.5L40.8,8.5,15.547,23.087l2.021,3.5Z" transform="translate(-0.73 -8.504)" fill="url(#linear-gradient-2)"/>
    <path id="Path_23124" data-name="Path 23124" d="M40.8,20.055l23.22,13.422,2.021-3.5L40.8,15.389,15.547,29.972l2.021,3.5Z" transform="translate(-0.73 -0.904)" fill="url(#linear-gradient-3)"/>
    <path id="Path_23125" data-name="Path 23125" d="M57.866,17.44l-2.021,3.5,5.5,3.174v46L33.587,86.142V76.376l20.6-11.9-2.021-3.5L29.547,74.044v19.1l35.835-20.7V21.782Z" transform="translate(14.723 1.36)" fill="url(#linear-gradient-4)"/>
    <path id="Path_23126" data-name="Path 23126" d="M44.925,46.611a7.99,7.99,0,0,0-1.039-6.381c-.044-.067-.086-.135-.128-.2l-.637-.785a2.226,2.226,0,0,1-.246-.311.166.166,0,0,1-.011-.147c.1-.189.21-.372.322-.553a6.809,6.809,0,0,0,.909-2.3,8.456,8.456,0,0,0,.072-2.947A7.362,7.362,0,0,0,38.071,26.8c-.671-.116-.656-.086-.658-.814,0-.507,0-1.016,0-1.523a1.337,1.337,0,0,0-.04-.316.18.18,0,0,0-.107-.107,1.163,1.163,0,0,0-.316-.05q-2,0-4.006,0a.993.993,0,0,0-.316.04.276.276,0,0,0-.156.156,1.675,1.675,0,0,0-.034.4c0,.507,0,1.014-.006,1.521a1.551,1.551,0,0,1-.042.4c-.017.063-.095.12-.158.162a.285.285,0,0,1-.154.034c-.372,0-.747.008-1.121,0-.215,0-.328-.128-.33-.364-.008-.482-.006-.961-.011-1.443,0-.212-.013-.425-.023-.64a.28.28,0,0,0-.267-.248c-.107-.008-.212-.017-.32-.017q-1.922,0-3.846,0c-.107,0-.212.011-.32.019a.271.271,0,0,0-.24.273c-.008.452-.011.907-.015,1.361,0,.267-.006.534-.017.8a.283.283,0,0,1-.269.246c-.212.011-.427.019-.64.019-.642,0-1.283,0-1.923,0a2.235,2.235,0,0,0-.475.044.292.292,0,0,0-.17.147.544.544,0,0,0-.029.236q0,2.083,0,4.166a.756.756,0,0,0,.034.238.2.2,0,0,0,.107.112,1.311,1.311,0,0,0,.313.044c.454.006.909,0,1.363.006a1.65,1.65,0,0,1,.4.04.242.242,0,0,1,.143.166,5.372,5.372,0,0,1,.038.637c0,1.229,0,2.457,0,3.686v6.57c0,.24,0,.482,0,.722l-.017,1.031c.008.133.021.267.021.4,0,.614,0,1.229,0,1.843,0,.107,0,.215-.008.32a.29.29,0,0,1-.288.311c-.374.008-.749.008-1.121.013-.24,0-.482.006-.722.017a.264.264,0,0,0-.248.261c-.006.133-.013.267-.013.4q0,1.8,0,3.606c0,.16.011.32.021.48a.279.279,0,0,0,.219.2c.158.013.318.027.478.029.614,0,1.229,0,1.843,0,.215,0,.427,0,.64.015a.289.289,0,0,1,.313.29c.008.322.006.642.013.961,0,.24.013.48.023.719a.243.243,0,0,0,.212.2c.133.013.267.025.4.025q1.881,0,3.766,0c.133,0,.265-.013.4-.025a.265.265,0,0,0,.2-.217c.013-.133.023-.265.025-.4,0-.347,0-.694,0-1.041a1.119,1.119,0,0,1,.038-.316A.324.324,0,0,1,30.8,52.5a.538.538,0,0,1,.234-.044c.267-.006.534-.006.8-.006.558,0,.591.1.593.6,0,.372,0,.747,0,1.121.006.438.055.48.526.49.053,0,.105,0,.16,0h3.606c.105,0,.212,0,.32-.008.248-.011.351-.1.358-.326.006-.32,0-.642.008-.961,0-.215.006-.427.015-.642a.3.3,0,0,1,.257-.263c.187-.021.372-.042.558-.057A7.541,7.541,0,0,0,44.925,46.611Zm-15.45-14.23a3,3,0,0,1,.038-.478.185.185,0,0,1,.156-.162,3.539,3.539,0,0,1,.4-.034c2.241,0,4.483,0,6.724,0a2.365,2.365,0,0,1,1.8.728,2.13,2.13,0,0,1,.631,1.433c.008.265.008.532,0,.8a2.274,2.274,0,0,1-1.908,2.068c-.265.034-.532.034-.8.048-.053,0-.105,0-.16,0H33.386v0c-1.094,0-2.188,0-3.282,0a2.76,2.76,0,0,1-.473-.05.169.169,0,0,1-.107-.109,1.916,1.916,0,0,1-.046-.4c-.006-.694,0-1.386,0-2.081C29.473,33.555,29.471,32.968,29.475,32.381ZM37.65,47.44c-.482.008-.961.006-1.443.006H33.8c-1.229,0-2.457,0-3.686,0a2.982,2.982,0,0,1-.473-.046.162.162,0,0,1-.105-.1,2.373,2.373,0,0,1-.063-.469c-.006-.774,0-1.548,0-2.325,0-.72,0-1.441,0-2.163,0-.105.013-.212.023-.318a.289.289,0,0,1,.208-.212c.16-.008.32-.017.48-.017q3.566,0,7.13,0a2.847,2.847,0,0,1,1.1.16,2.569,2.569,0,0,1,1.717,2.3,3.4,3.4,0,0,1-.111,1.346A2.6,2.6,0,0,1,37.65,47.44Z" transform="translate(6.454 8.589)" fill="url(#linear-gradient-5)"/>
  </g>
  <g id="Group_4205" data-name="Group 4205" transform="translate(97.995 35.506)">
    <path id="Path_23127" data-name="Path 23127" d="M77.09,25.576v24H72.531L60.569,35V49.572H55.084v-24h4.595L71.605,40.145V25.576Z" transform="translate(-55.084 -25.166)" fill="#fff"/>
    <path id="Path_23128" data-name="Path 23128" d="M86.825,45.114v4.458H68.246v-24H86.379v4.456H73.764v5.211H84.906v4.319H73.764v5.552Z" transform="translate(-40.556 -25.166)" fill="#fff"/>
    <path id="Path_23129" data-name="Path 23129" d="M116.375,25.576l-7.849,24h-5.964L97.283,33.324,91.833,49.572H85.9l-7.885-24h5.758L89.194,42.44l5.655-16.864h5.142l5.485,17,5.588-17Z" transform="translate(-29.768 -25.166)" fill="#fff"/>
    <path id="Path_23130" data-name="Path 23130" d="M96.833,47.42l1.885-4.182a14.112,14.112,0,0,0,7.919,2.5c3.29,0,4.628-1.1,4.628-2.571,0-4.49-13.95-1.405-13.95-10.317,0-4.079,3.29-7.473,10.111-7.473a16.092,16.092,0,0,1,8.329,2.125l-1.715,4.216a13.542,13.542,0,0,0-6.648-1.885c-3.292,0-4.559,1.233-4.559,2.741,0,4.422,13.95,1.372,13.95,10.18,0,4.012-3.326,7.439-10.18,7.439C102.8,50.2,98.96,49.066,96.833,47.42Z" transform="translate(-9.002 -25.381)" fill="#fff"/>
    <path id="Path_23131" data-name="Path 23131" d="M107.4,37.789c0-7.233,5.554-12.408,13.025-12.408a12.386,12.386,0,0,1,9.873,4.25l-3.564,3.29a7.722,7.722,0,0,0-6.034-2.811,7.361,7.361,0,0,0-7.679,7.679,7.359,7.359,0,0,0,7.679,7.677,7.65,7.65,0,0,0,6.034-2.844l3.564,3.29A12.33,12.33,0,0,1,120.4,50.2C112.959,50.2,107.4,45.022,107.4,37.789Z" transform="translate(2.668 -25.381)" fill="#fff"/>
    <path id="Path_23132" data-name="Path 23132" d="M135.35,49.572l-4.626-6.686h-5.108v6.686h-5.554v-24h10.386c6.41,0,10.42,3.326,10.42,8.708a7.8,7.8,0,0,1-4.935,7.576l5.382,7.713ZM130.141,30.1h-4.525v8.365h4.525c3.393,0,5.106-1.578,5.106-4.182C135.247,31.643,133.535,30.1,130.141,30.1Z" transform="translate(16.638 -25.166)" fill="#fff"/>
    <path id="Path_23133" data-name="Path 23133" d="M145.3,41.07v8.5h-5.554V41l-9.288-15.425h5.9l6.41,10.66,6.408-10.66h5.451Z" transform="translate(28.109 -25.166)" fill="#fff"/>
    <path id="Path_23134" data-name="Path 23134" d="M163.853,34.284c0,5.348-4.01,8.672-10.42,8.672H148.6v6.616h-5.552v-24h10.386C159.843,25.576,163.853,28.9,163.853,34.284Zm-5.621,0c0-2.64-1.715-4.182-5.108-4.182H148.6V38.43h4.525C156.517,38.43,158.231,36.888,158.231,34.284Z" transform="translate(42.008 -25.166)" fill="#fff"/>
    <path id="Path_23135" data-name="Path 23135" d="M161.36,30.1h-7.677V25.576h20.91V30.1h-7.679V49.572H161.36Z" transform="translate(53.749 -25.166)" fill="#fff"/>
    <path id="Path_23136" data-name="Path 23136" d="M164.32,37.789c0-7.13,5.554-12.408,13.128-12.408,7.542,0,13.128,5.245,13.128,12.408S184.99,50.2,177.448,50.2C169.874,50.2,164.32,44.919,164.32,37.789Zm20.636,0a7.509,7.509,0,1,0-15.015,0,7.509,7.509,0,1,0,15.015,0Z" transform="translate(65.49 -25.381)" fill="#fff"/>
    <path id="Path_23137" data-name="Path 23137" d="M177.987,37.241a3.325,3.325,0,0,1,6.65,0,3.325,3.325,0,1,1-6.65,0Z" transform="translate(80.576 -15.921)" fill="#fff"/>
    <path id="Path_23138" data-name="Path 23138" d="M183.052,25.576h5.554v24h-5.554Z" transform="translate(86.166 -25.166)" fill="#fff"/>
    <path id="Path_23139" data-name="Path 23139" d="M187.678,37.789c0-7.13,5.556-12.408,13.13-12.408,7.542,0,13.128,5.245,13.128,12.408S208.35,50.2,200.808,50.2C193.234,50.2,187.678,44.919,187.678,37.789Zm20.636,0a7.508,7.508,0,1,0-15.013,0,7.508,7.508,0,1,0,15.013,0Z" transform="translate(91.273 -25.381)" fill="#fff"/>
  </g>
</svg>
