<svg width="304" height="172" viewBox="0 0 210 24" fill="none" xmlns="http://www.w3.org/2000/svg">
<path d="M37 24V0H44.3V24H37Z" fill="#FFFFFF"/>
<path d="M57.2 0H75.4V6.3H57.2V0ZM57.2 10.7H75.4V16H64.5V24H57.2V10.7Z" fill="#FFFFFF"/>
<path d="M141 0H159.2V6.3H141V0ZM141 10.7H159.2V16H148.3V24H141V10.7Z" fill="#FFFFFF"/>
<path d="M94.5 24V6.3H87.4V0H108.8V6.3H101.7V24H94.5Z" fill="#FFFFFF"/>
<path d="M120.7 24V0H128V24H120.7Z" fill="#FFFFFF"/>
<path d="M178.3 24V14.5L169.3 0H177.5L182 8.1L186.4 0H194.6L185.7 14.5V24H178.3Z" fill="#FFFFFF"/>
<path d="M24 0V12.8L16.7 4.6V0H24Z" fill="#FFFFFF"/>
<path d="M0 4V0H6.2L24 20.1V24H17.7L0 4Z" fill="#FFFFFF"/>
<path d="M7.3 19.3V24H0V11.1L7.3 19.3Z" fill="#FFFFFF"/>
<path d="M201.3 5.7V0.7H199.3V0H204V0.6H202V5.6H201.3V5.7Z" fill="#FFFFFF"/>
<path d="M209.3 5.7V1L207.4 5.7H207.1L205.2 1V5.7H204.5V0H205.5L207.3 4.3L209 0H210V5.7H209.3Z" fill="#FFFFFF"/>
</svg>
