<?xml version="1.0" encoding="utf-8"?>
<!-- Generator: Adobe Illustrator 16.0.0, SVG Export Plug-In . SVG Version: 6.00 Build 0)  -->
<!DOCTYPE svg PUBLIC "-//W3C//DTD SVG 1.1//EN" "http://www.w3.org/Graphics/SVG/1.1/DTD/svg11.dtd">
<svg version="1.1" id="Layer_1" xmlns="http://www.w3.org/2000/svg" xmlns:xlink="http://www.w3.org/1999/xlink" x="0px" y="0px"
	 width="150.293px" height="45.772px" viewBox="0 0 150.293 45.772" enable-background="new 0 0 150.293 45.772"
	 xml:space="preserve">
<g>
	<g>
		<path d="M138.922,4.121c-1.635-0.186-2.943-0.186-4.352,0.005c-6.492,1.02-11.025,6.42-11.025,13.13
			c0,8.288,5.531,14.076,13.451,14.076c7.58,0,13.297-6.052,13.297-14.076C150.293,10.672,145.526,5.149,138.922,4.121z
			 M136.997,26.982c-5.221,0-8.867-3.951-8.867-9.609c0-4.861,2.716-8.308,7.076-8.993c0.504-0.072,1.025-0.108,1.549-0.108
			c0.525,0,1.067,0.037,1.59,0.105c4.359,0.709,7.404,4.409,7.404,8.996C145.749,23.031,142.149,26.982,136.997,26.982z"/>
		<path d="M10.661,4.497H0v26.364h4.396v-7.334h6.151c7.943,0,10.773-4.806,10.773-9.302C21.321,9.54,17.984,4.497,10.661,4.497z
			 M10.548,19.408H4.396V8.613H10.7c4.075,0,6.239,2.832,6.271,5.633c0.034,1.297-0.427,2.505-1.296,3.397
			C14.548,18.798,12.776,19.408,10.548,19.408z"/>
		<polygon points="98.372,8.613 98.372,4.486 78.256,4.486 78.256,30.814 98.372,30.814 98.372,26.668 82.651,26.668 82.651,19.835 
			95.551,19.835 95.551,15.756 82.651,15.756 82.651,8.613 		"/>
		<polygon points="40.548,14.041 40.471,13.889 35.535,13.889 38.711,20.26 29.058,20.26 32.252,13.889 27.324,13.889 
			18.795,30.861 23.713,30.861 27.088,24.3 40.717,24.3 44.09,30.861 49.063,30.861 		"/>
		<polygon points="33.909,6.271 35.535,9.837 40.474,9.837 35.504,0 32.288,0 27.349,9.837 32.257,9.837 		"/>
		<path d="M73.519,28.876l-4.703-5.122l-1.144-1.25c3.798-1.646,5.281-5.04,5.281-8.28c0-4.685-3.335-9.728-10.66-9.728H51.632
			v26.364h4.396v-7.334h6.153c0.21,0,0.402-0.017,0.605-0.024l2.103,2.299l4.628,5.06h0.842h0.658h0.108h3.412h0.799h0.003
			L73.519,28.876z M56.028,8.613h6.305c4.074,0,6.239,2.832,6.271,5.633c0.034,1.297-0.426,2.505-1.296,3.397
			c-1.127,1.155-2.899,1.765-5.126,1.765h-6.153V8.613z"/>
		<polygon points="123.753,4.497 102.708,4.497 101.313,4.497 101.313,8.769 102.248,8.769 110.299,8.769 110.299,30.861 
			110.308,30.861 114.768,30.861 114.777,30.861 114.777,8.769 123.762,8.769 123.762,4.497 		"/>
	</g>
	<g>
		<path d="M36.004,45.636v-1.36l3.172-3.12c0.367-0.357,0.658-0.955,0.658-1.449c0-0.783-0.352-1.334-1.184-1.334
			c-0.667,0-1.065,0.445-1.137,1.402h-1.449c0.021-1.612,1.079-2.76,2.728-2.76c1.629,0,2.564,1.098,2.564,2.621
			c0,1.207-0.488,1.84-1.322,2.623l-2.2,2.084h3.49v1.293H36.004z"/>
		<path d="M51.568,41.396c0,2.713-1.619,4.376-3.953,4.376c-2.329,0-3.954-1.663-3.954-4.376c0-2.719,1.625-4.381,3.954-4.381
			C49.949,37.015,51.568,38.677,51.568,41.396z M47.616,38.3c-1.133,0-2.122,0.912-2.122,3.096c0,2.178,0.989,3.088,2.122,3.088
			c1.139,0,2.122-0.91,2.122-3.088C49.738,39.212,48.754,38.3,47.616,38.3z"/>
		<path d="M54.363,45.636v-8.481h1.148v7.706h4.073v0.775H54.363z"/>
		<path d="M63.039,37.155v6.085c0,1.221,0.812,1.76,2.082,1.76c1.269,0,2.078-0.539,2.078-1.76v-6.085h1.152v6.274
			c0,1.522-1.136,2.343-3.23,2.343c-2.097,0-3.233-0.82-3.233-2.343v-6.274H63.039z"/>
		<path d="M70.54,37.155h6.252V38h-2.551v7.637h-1.152V38H70.54V37.155z"/>
		<path d="M79.171,45.636v-8.481h1.151v8.481H79.171z"/>
		<path d="M91.09,41.396c0,2.516-1.235,4.376-4.035,4.376c-2.807,0-4.044-1.86-4.044-4.376c0-2.521,1.237-4.381,4.044-4.381
			C89.855,37.015,91.09,38.875,91.09,41.396z M84.249,41.396c0,2.385,0.916,3.604,2.807,3.604c1.885,0,2.8-1.219,2.8-3.604
			c0-2.395-0.915-3.607-2.8-3.607C85.165,37.789,84.249,39.001,84.249,41.396z"/>
		<path d="M93.801,45.636v-8.481h1.238l4.469,6.431h0.027v-6.431h1.152v8.481h-1.092l-4.617-6.75h-0.032v6.75H93.801z"/>
		<path d="M104.426,43.07c0,1.287,0.514,1.93,2.255,1.93c1.313,0,2.095-0.467,2.095-1.603c0-2.298-5.294-1.159-5.294-4.098
			c0-1.511,1.296-2.284,3.14-2.284c1.92,0,3.068,0.947,3.068,2.553h-1.148c0-1.174-0.68-1.779-2.064-1.779
			c-1.08,0-1.844,0.502-1.844,1.424c0,2.273,5.295,0.939,5.295,4.15c0,1.686-1.535,2.409-3.367,2.409
			c-2.255,0-3.288-0.992-3.288-2.702H104.426z"/>
	</g>
</g>
</svg>
