<svg height="51" viewBox="0 0 282 51" width="282" xmlns="http://www.w3.org/2000/svg"><g fill="#fff" fill-rule="evenodd"><path d="m.34523909 2.56698565h10.50923081c5.3492931 0 12.1187526 2.75034176 12.1187526 9.95813395 0 5.1687457-3.503077 8.0139269-7.1955094 9.2468387 2.9350104 4.1255127 7.8582536 10.9065277 10.1305197 13.9888073h-8.5209979l-9.08906442-13.2300923h-1.18347194v13.2300923h-6.76945945zm6.76945945 5.73778195v8.4881237h2.65097714c3.40839912 0 5.96469852-1.2329118 5.96469852-4.1255126 0-2.6080827-2.0355717-4.3626111-5.0652599-4.3626111zm45.44532226 16.6443096h-17.5153846c.4733887 3.4142174 2.698316 5.9748804 6.2487318 5.9748804 3.2190436 0 4.8759043-1.3277512 6.4854262-3.6987355l4.4025156 2.9874402c-2.8403327 4.1255127-6.0120375 6.1171395-11.3613306 6.1171395-7.5268815 0-12.5921414-5.2635851-12.5921414-12.7558954 0-7.5397301 5.4913098-13.3249317 12.6394803-13.3249317 6.9114761 0 12.0240748 4.8842276 12.0240748 11.5229836 0 .9958134-.1420166 2.1813055-.3313721 3.1771189zm-17.1840125-4.5997095h10.6512474c-.1420166-2.9874402-2.2249272-4.8368079-4.9705821-4.8368079-3.2190437 0-4.9705821 2.0390465-5.6806653 4.8368079zm43.3150728 15.4113979h-5.8226819l-.5207277-2.1338859c-1.6095218 1.9916268-4.1184823 2.7029221-6.7694594 2.7029221-4.63921 0-8.9470479-2.7977615-8.9470479-7.9190875 0-6.1171395 5.6806653-8.0613466 10.840603-8.0613466 1.3728274 0 2.9350103.1896788 4.4971933.5216166v-.3793575c0-3.1296993-1.2781497-5.0264867-4.9232432-5.0264867-2.8403327 0-5.3492932 1.0432331-7.5268815 2.1813056l-1.7988774-4.836808c3.1717048-1.5648496 7.0061539-2.560663 10.6985863-2.560663 6.9114761 0 10.2725364 4.0306733 10.2725364 10.5271702zm-6.7221206-6.2593985v-4.5997095c-1.2781497-.2845182-2.3669439-.4267772-3.4083992-.4267772-2.4616216 0-5.3492931.900974-5.3492931 3.8409945 0 2.1813056 1.7988773 3.319378 3.7871102 3.319378 1.9408939 0 3.5504158-.8535543 4.9705821-2.1338858zm19.7403118-29.30536573v35.56476423h-6.7221205v-35.56476423zm37.2556967 10.57458993c-1.846216-1.56484967-4.307838-2.98744024-6.864137-2.98744024-2.272267 0-4.307838 1.13807245-4.307838 3.31937794 0 2.5606631 3.124366 3.2719584 5.680665 4.1729324 4.686549 1.6122693 10.319875 3.7935748 10.319875 10.7642686 0 7.2077922-6.769459 10.2900718-12.544802 10.2900718-5.112599 0-9.089065-1.9442071-12.686819-5.5481032l4.497193-4.4100308c2.698316 2.6080827 4.781227 4.1729323 8.236965 4.1729323 2.650977 0 5.254615-1.2803315 5.254615-4.220352 0-2.8451811-3.029688-3.9358339-6.390748-5.1687457-4.307838-1.6122693-9.136404-3.5090567-9.136404-9.8632946 0-6.30681819 5.349293-9.29425838 10.840603-9.29425838 4.260499 0 7.621559 1.37517088 10.98262 3.9358339zm23.290727 5.6429425h-6.343409v9.6736159c0 .758715 0 1.4225906.094678 2.1338858.189355 1.4700103.757422 2.3709843 2.177588 2.3709843 1.041455 0 1.846216-.2845181 2.698316-.7112953l2.082911 4.979067c-1.609522.9483937-3.976466 1.4700103-5.91736 1.4700103-3.881788 0-6.485426-2.1338859-7.384865-5.3584245-.378711-1.2329118-.473389-2.7029221-.473389-4.1729323v-10.3849112h-2.982349v-5.5955229h2.982349l1.041456-5.50068349h5.680665v5.50068349h6.343409zm25.468316 19.3472318h-5.822681l-.520728-2.1338859c-1.609522 1.9916268-4.118482 2.7029221-6.76946 2.7029221-4.63921 0-8.947047-2.7977615-8.947047-7.9190875 0-6.1171395 5.680665-8.0613466 10.840603-8.0613466 1.372827 0 2.93501.1896788 4.497193.5216166v-.3793575c0-3.1296993-1.27815-5.0264867-4.923243-5.0264867-2.840333 0-5.349293 1.0432331-7.526882 2.1813056l-1.798877-4.836808c3.171705-1.5648496 7.006154-2.560663 10.698586-2.560663 6.911476 0 10.272536 4.0306733 10.272536 10.5271702zm-6.72212-6.2593985v-4.5997095c-1.27815-.2845182-2.366944-.4267772-3.408399-.4267772-2.461622 0-5.349293.900974-5.349293 3.8409945 0 2.1813056 1.798877 3.319378 3.78711 3.319378 1.940894 0 3.550416-.8535543 4.970582-2.1338858zm30.249543-15.9804341-3.692433 4.078093c-1.27815-1.1380725-3.029688-2.0864662-4.923243-2.0864662-1.27815 0-2.414283.7112953-2.414283 1.8967874 0 1.5648497 1.846216 2.3709843 3.929127 3.2245387 3.219044 1.3277511 7.290187 2.9400205 7.290187 7.681989 0 5.5006835-4.733888 8.0139269-9.562453 8.0139269-3.881788 0-7.290187-1.51743-10.035842-4.2677717l3.834449-3.9832536c1.893555 1.8493677 3.455738 2.9400205 5.870021 2.9400205 1.372827 0 3.171704-.6638756 3.171704-2.1813055 0-1.7545284-2.272266-2.5132434-4.733887-3.6038961-2.98235-1.2803316-6.248732-2.9874402-6.248732-7.3500513 0-5.0739064 4.355177-7.6345694 8.899709-7.6345694 3.313721 0 6.296071 1.0906528 8.615676 3.2719583zm12.260769-13.32493163v13.56203003c1.988233-2.4184039 4.781226-3.5090567 7.337526-3.5090567 2.698316 0 5.06526 1.2803315 6.627443 3.2719583 1.940894 2.5132433 2.224927 5.737782 2.224927 9.2942584v12.9455742h-6.722121v-12.6136364c0-1.8493678-.047339-3.9358339-.757422-5.3584245-.615405-1.2329118-1.846216-1.7545284-3.313721-1.7545284-1.988233 0-4.165821 1.1380725-5.396632 3.177119v16.5494703h-6.722121v-35.56476423z" transform="translate(52 13)"/><g fill-rule="nonzero"><path d="m41.2884298 19.7537671c.4556562.4586011.7116167 1.0805829.7115702 1.7291096v26.960137c0 1.3504497-1.0878371 2.4452055-2.4297521 2.4452055h-37.14049583c-1.34191502 0-2.42975207-1.0947558-2.42975207-2.4452055v-26.960137c-.0000465-.6485267.25591401-1.2705085.71157025-1.7291096l18.57024795-18.68835614c.455674-.45861895 1.0737285-.71627232 1.7181818-.71627232s1.2625078.25765337 1.7181818.71627232zm-20.2016529 4.8834247c-4.5394179-.0044811-8.4294146 3.2656492-9.2330579 7.7617808-.0987341.5533883-.1486804 1.1144748-.1492562 1.6767123-.0005752.7148016.0797777 1.4273419.2395041 2.1238356l.0763637.2654795c.2059504.6124658.4280992 1.2179452.6664463 1.8164384 1.5561822 3.9106178 3.7969745 7.5085131 6.6158677 10.6226712.4600677.5029309 1.1083281.7890873 1.7876033.7890873.6792753 0 1.3275356-.2861564 1.7876033-.7890873 2.847715-3.1375955 5.1026582-6.7717656 6.6540496-10.7239726.2290909-.5833562.4442975-1.1736986.6386777-1.7710274.7141126-2.823429.0915191-5.8205067-1.6867101-8.1195861s-4.5124656-3.6420598-7.4075048-3.6383591z"/><ellipse cx="21.086777" cy="34.075685" rx="4.304132" ry="4.331507"/></g></g></svg>