<svg width="244" height="249" viewBox="0 0 244 249" fill="none" xmlns="http://www.w3.org/2000/svg">
<path d="M234.502 242.475C234.502 242.475 227.085 250.095 231.434 248.848C235.777 247.595 234.502 242.475 234.502 242.475Z" fill="#2C3036"/>
<path d="M1.5337 206.751C1.5337 206.751 6.36186 214.293 3.65654 214.455C0.944744 214.61 0.0904317 208.029 1.5337 206.751Z" fill="#2C3036"/>
<path d="M147.246 73.0578C147.246 73.0578 151.22 65.3086 164.953 52.7097C164.953 52.7097 164.118 68.4858 147.246 73.0578Z" fill="#FF75E4"/>
<path d="M115.668 59.8584C115.668 59.8584 127.823 71.6501 133.525 85.4114C133.531 85.4114 113.701 70.8752 115.668 59.8584Z" fill="#FF75E4"/>
<path d="M157.808 65.2441C157.698 65.3475 157.582 65.4508 157.465 65.5606C157.582 65.4508 157.698 65.3475 157.808 65.2441Z" fill="#FFCFF4"/>
<path d="M163.063 58.7671C163.057 58.7798 163.05 58.7925 163.044 58.8116C163.044 58.8052 163.05 58.7989 163.05 58.7989C163.057 58.7862 163.057 58.7734 163.063 58.7671Z" fill="#FFB5E4"/>
<path d="M162.915 59.0706C162.902 59.0966 162.882 59.1291 162.869 59.1551C162.882 59.1226 162.902 59.0966 162.915 59.0706Z" fill="#FFB5E4"/>
<path d="M162.694 59.4715C162.714 59.439 162.727 59.413 162.747 59.3805C162.727 59.413 162.707 59.4455 162.694 59.4715Z" fill="#FFB5E4"/>
<path d="M162.287 60.13C162.3 60.1105 162.313 60.091 162.326 60.0715C162.306 60.0975 162.3 60.1105 162.287 60.13Z" fill="#FFB5E4"/>
<path d="M162.5 59.7943C162.513 59.7683 162.533 59.7423 162.546 59.7163C162.533 59.7423 162.513 59.7683 162.5 59.7943Z" fill="#FFB5E4"/>
<path d="M163.167 58.5349C163.173 58.5154 163.186 58.4959 163.193 58.4764C163.186 58.4959 163.173 58.5154 163.167 58.5349Z" fill="#FFB5E4"/>
<path d="M159.064 64.0177C159.09 63.9917 159.116 63.9657 159.142 63.9397C159.116 63.9657 159.09 63.9917 159.064 64.0177Z" fill="#F779D7"/>
<path d="M160.262 62.7385C160.262 62.745 160.255 62.745 160.255 62.7515C160.236 62.771 160.223 62.7905 160.203 62.81C160.19 62.8295 160.17 62.849 160.157 62.862C160.19 62.8165 160.229 62.7775 160.262 62.7385Z" fill="#F779D7"/>
<path d="M157.808 65.2444C157.828 65.2314 157.841 65.2119 157.86 65.1989C157.841 65.2119 157.828 65.2249 157.808 65.2444Z" fill="#F779D7"/>
<path d="M161.29 61.5051C161.271 61.531 161.251 61.5568 161.225 61.5891C161.219 61.602 161.206 61.6085 161.199 61.6214C161.193 61.6278 161.187 61.6343 161.18 61.6407C161.219 61.5955 161.258 61.5503 161.29 61.5051Z" fill="#F779D7"/>
<path d="M162.054 60.4784C162.035 60.5109 162.009 60.5369 161.989 60.5694C162.009 60.5369 162.035 60.5044 162.054 60.4784Z" fill="#F779D7"/>
<path d="M161.711 60.9562C161.698 60.9691 161.691 60.982 161.678 60.9949C161.665 61.0143 161.646 61.0337 161.633 61.0595C161.62 61.0789 161.607 61.0982 161.594 61.1112C161.633 61.0595 161.672 61.0078 161.711 60.9562Z" fill="#F779D7"/>
<path d="M159.743 63.3132C159.724 63.3391 159.698 63.3584 159.678 63.3843C159.672 63.3907 159.672 63.3907 159.666 63.3972C159.646 63.4166 159.627 63.4359 159.614 63.4553C159.659 63.4036 159.698 63.3584 159.743 63.3132Z" fill="#F779D7"/>
<path d="M156.617 66.3096C156.902 66.0642 157.187 65.8124 157.472 65.5541C157.187 65.8124 156.902 66.0642 156.617 66.3096Z" fill="#F779D7"/>
<path d="M154.714 67.8401C154.831 67.7497 154.947 67.6657 155.07 67.5753C154.947 67.6657 154.831 67.7497 154.714 67.8401Z" fill="#F779D7"/>
<path d="M155.556 67.1814C155.653 67.104 155.75 67.0329 155.847 66.949C155.75 67.0329 155.653 67.104 155.556 67.1814Z" fill="#F779D7"/>
<path d="M151.064 70.1713C151.181 70.1132 151.297 70.0486 151.414 69.984C151.297 70.055 151.181 70.1132 151.064 70.1713Z" fill="#F779D7"/>
<path d="M152.436 69.3964C152.559 69.3189 152.682 69.2414 152.812 69.1639C152.682 69.2414 152.559 69.3189 152.436 69.3964Z" fill="#F779D7"/>
<path d="M151.737 69.8097C151.86 69.7386 151.977 69.674 152.1 69.5966C151.977 69.674 151.854 69.7451 151.737 69.8097Z" fill="#F779D7"/>
<path d="M153.925 68.4083C154.048 68.3244 154.171 68.234 154.294 68.1436C154.171 68.2404 154.048 68.3244 153.925 68.4083Z" fill="#F779D7"/>
<path d="M153.168 68.9314C153.291 68.8475 153.414 68.7635 153.543 68.6796C153.42 68.7635 153.291 68.8475 153.168 68.9314Z" fill="#F779D7"/>
<path d="M157.808 65.2441C157.698 65.3475 157.582 65.4508 157.465 65.5606C157.582 65.4508 157.698 65.3475 157.808 65.2441Z" fill="#F779D7"/>
<path d="M162.08 60.4396C162.073 60.4526 162.06 60.4657 162.054 60.4787C162.06 60.4657 162.073 60.4526 162.08 60.4396Z" fill="#F779D7"/>
<path d="M162.798 59.2837C162.779 59.316 162.759 59.3483 162.74 59.387C162.72 59.4193 162.707 59.4451 162.688 59.4774C162.682 59.4903 162.669 59.5033 162.662 59.5162C162.714 59.4322 162.753 59.3612 162.798 59.2837Z" fill="#F779D7"/>
<path d="M162.578 59.6582C162.565 59.6776 162.552 59.6969 162.546 59.7163C162.533 59.7422 162.513 59.768 162.5 59.7938C162.481 59.8261 162.461 59.8519 162.442 59.8842C162.487 59.8132 162.533 59.7357 162.578 59.6582Z" fill="#F779D7"/>
<path d="M163.005 58.8898C162.979 58.9479 162.947 59.006 162.915 59.0641C162.902 59.09 162.882 59.1222 162.869 59.1481C162.915 59.0641 162.96 58.9802 163.005 58.8898Z" fill="#F779D7"/>
<path d="M163.193 58.4764C163.186 58.4958 163.173 58.5152 163.167 58.5346C163.135 58.6121 163.102 58.6831 163.063 58.7606C163.057 58.767 163.057 58.78 163.05 58.7864C163.102 58.6831 163.148 58.5798 163.193 58.4764Z" fill="#F779D7"/>
<path d="M162.339 60.0457C162.332 60.0586 162.326 60.065 162.319 60.0779C162.306 60.0973 162.293 60.1167 162.28 60.1361C162.248 60.1877 162.216 60.2329 162.183 60.2846C162.241 60.2006 162.293 60.1231 162.339 60.0457Z" fill="#F779D7"/>
<path d="M163.063 58.767C163.102 58.6895 163.135 58.612 163.167 58.541C163.135 58.612 163.102 58.6895 163.063 58.767Z" fill="#FFCFF4"/>
<path d="M159.666 63.3907C159.627 63.436 159.581 63.4812 159.536 63.5264C159.562 63.5005 159.588 63.4747 159.607 63.4489C159.633 63.4295 159.653 63.4101 159.666 63.3907Z" fill="#FFCFF4"/>
<path d="M161.633 61.0596C161.588 61.1177 161.542 61.1823 161.497 61.2404C161.53 61.1952 161.562 61.1564 161.594 61.1112C161.607 61.0919 161.62 61.0725 161.633 61.0596Z" fill="#FFCFF4"/>
<path d="M161.205 61.6149C161.193 61.6276 161.18 61.6403 161.174 61.6594C161.18 61.653 161.186 61.6467 161.186 61.6403C161.193 61.6339 161.199 61.6212 161.205 61.6149Z" fill="#FFCFF4"/>
<path d="M160.203 62.8031C160.125 62.8871 160.054 62.971 159.976 63.055C160.034 62.9904 160.093 62.9193 160.157 62.8548C160.17 62.8418 160.183 62.8225 160.203 62.8031Z" fill="#FFCFF4"/>
<path d="M160.287 62.7126C160.274 62.7257 160.268 62.7388 160.255 62.7518C160.255 62.7453 160.261 62.7453 160.261 62.7388C160.268 62.7322 160.281 62.7192 160.287 62.7126Z" fill="#FFCFF4"/>
<path d="M157.944 65.115C157.899 65.1602 157.853 65.1989 157.808 65.2441C157.828 65.2312 157.84 65.2119 157.86 65.1989C157.886 65.1667 157.918 65.1408 157.944 65.115Z" fill="#FFCFF4"/>
<path d="M159.853 63.1906C159.795 63.2551 159.737 63.3197 159.679 63.3778C159.698 63.352 159.724 63.3326 159.743 63.3068C159.776 63.268 159.814 63.2293 159.853 63.1906Z" fill="#FFCFF4"/>
<path d="M161.432 61.3243C161.368 61.4083 161.297 61.4987 161.225 61.5891C161.245 61.5633 161.264 61.5374 161.29 61.5052C161.342 61.447 161.387 61.3825 161.432 61.3243Z" fill="#FFCFF4"/>
<path d="M158.093 64.9794C158.203 64.8696 158.319 64.7663 158.429 64.6565C158.313 64.7663 158.203 64.8696 158.093 64.9794Z" fill="#FFCFF4"/>
<path d="M161.989 60.5687C162.008 60.5364 162.034 60.5106 162.054 60.4783C162.06 60.4654 162.073 60.4525 162.08 60.4396L162.086 60.4331C161.957 60.6204 161.821 60.8077 161.678 61.0014C161.691 60.9885 161.698 60.9756 161.711 60.9626C161.808 60.8206 161.898 60.6914 161.989 60.5687Z" fill="#FFCFF4"/>
<path d="M159.141 63.9396C159.238 63.8363 159.342 63.733 159.439 63.6361C159.297 63.7846 159.154 63.9332 159.012 64.0817C159.031 64.0623 159.051 64.0429 159.07 64.0236C159.09 63.9913 159.115 63.9654 159.141 63.9396Z" fill="#FFCFF4"/>
<path d="M162.669 59.5162C162.675 59.5032 162.688 59.4903 162.695 59.4774C162.649 59.5614 162.597 59.6389 162.546 59.7228C162.559 59.7034 162.572 59.6841 162.578 59.6647C162.61 59.613 162.636 59.5614 162.669 59.5162Z" fill="#FFCFF4"/>
<path d="M162.837 59.2126C162.804 59.2708 162.772 59.3289 162.74 59.387C162.759 59.3547 162.779 59.316 162.798 59.2837C162.811 59.2578 162.824 59.232 162.837 59.2126Z" fill="#FFCFF4"/>
<path d="M160.358 62.6287C160.487 62.4802 160.61 62.3381 160.733 62.196C160.61 62.3381 160.487 62.4802 160.358 62.6287Z" fill="#FFCFF4"/>
<path d="M160.785 62.1315C160.889 62.0088 160.986 61.8861 161.083 61.7699C160.986 61.8861 160.889 62.0088 160.785 62.1315Z" fill="#FFCFF4"/>
<path d="M163.018 58.8574C162.986 58.9285 162.947 58.993 162.915 59.0641C162.947 59.0059 162.973 58.9478 163.005 58.8897C163.005 58.8832 163.012 58.8703 163.018 58.8574Z" fill="#FFCFF4"/>
<path d="M158.565 64.5208C158.695 64.3916 158.824 64.2689 158.947 64.1398C158.824 64.2689 158.695 64.3916 158.565 64.5208Z" fill="#FFCFF4"/>
<path d="M162.287 60.1296C162.241 60.2007 162.196 60.2717 162.144 60.3427C162.157 60.3234 162.17 60.2975 162.19 60.2782C162.216 60.233 162.254 60.1813 162.287 60.1296Z" fill="#FFCFF4"/>
<path d="M162.5 59.7938C162.468 59.8455 162.436 59.8971 162.403 59.9488C162.416 59.9294 162.429 59.9036 162.442 59.8842C162.462 59.8584 162.481 59.8261 162.5 59.7938Z" fill="#FFCFF4"/>
<path d="M162.352 60.0264C162.339 60.0459 162.332 60.0589 162.319 60.0784C162.326 60.0654 162.332 60.0589 162.339 60.0459C162.345 60.0394 162.352 60.0329 162.352 60.0264Z" fill="#FFCFF4"/>
<path d="M158.811 57.4368C157.329 58.2633 155.633 59.458 153.925 60.9174C153.355 60.1748 152.818 59.4193 152.32 58.6443C151.815 58.8897 151.291 59.1287 150.754 59.3611C150.553 59.0899 150.352 58.8252 150.152 58.5475C143.388 49.0935 140.088 39.4328 139.99 30.6698C140.107 30.25 140.236 29.8367 140.372 29.4299C140.405 29.3266 140.437 29.2297 140.476 29.1264C140.735 28.5581 141.363 27.9834 142.256 27.5765C142.741 27.357 140.948 28.7454 141.421 28.6808C142.43 28.5452 142.612 28.3902 142.987 28.9197C143.544 29.7011 143.731 29.7786 142.223 30.4631C142.159 30.489 144.133 30.4502 144.068 30.476C144.922 35.597 147.187 40.9568 150.941 46.2134C153.168 49.3195 155.776 52.1867 158.669 54.7891C158.177 55.1508 157.666 55.5124 157.128 55.8676L158.811 57.4368Z" fill="#FFADAF"/>
<path d="M152.76 61.9507C152.067 61.0983 151.407 60.233 150.76 59.3547C151.297 59.1223 151.815 58.8833 152.326 58.6379C152.825 59.4129 153.362 60.1684 153.931 60.911C153.614 61.1823 153.304 61.4535 152.986 61.7376C152.909 61.8151 152.838 61.8861 152.76 61.9507Z" fill="#FFADAF"/>
<path d="M160.708 56.5328C160.138 56.7459 159.497 57.0494 158.811 57.4368L157.148 55.8741C157.685 55.5125 158.196 55.1508 158.688 54.7957C159.348 55.3833 160.015 55.9645 160.708 56.5328Z" fill="#FFADAF"/>
<path d="M155.582 62.9322C154.999 62.28 154.449 61.602 153.925 60.9175C155.633 59.458 157.329 58.2633 158.811 57.4368L160.882 59.3805C159.814 60.6979 157.983 61.9507 155.582 62.9322Z" fill="#FFADAF"/>
<path d="M154.048 63.4876C153.614 62.9775 153.181 62.4673 152.76 61.9507C152.838 61.8797 152.909 61.8086 152.98 61.7441C153.297 61.4599 153.608 61.1822 153.925 60.9175C154.449 61.602 154.999 62.28 155.582 62.9323C155.096 63.126 154.585 63.3197 154.048 63.4876Z" fill="#FFADAF"/>
<path d="M156.365 66.0707C156.417 66.1288 156.494 66.2063 156.598 66.3161C156.494 66.2128 156.417 66.1288 156.365 66.0707Z" fill="#FFADAF"/>
<path d="M161.879 57.4691C161.743 58.1019 161.4 58.7477 160.889 59.3806L158.818 57.4368C159.504 57.0558 160.138 56.7523 160.714 56.5327C161.096 56.8491 161.484 57.1591 161.879 57.4691Z" fill="#FFADAF"/>
<path d="M161.879 57.4691C162.313 57.8114 162.753 58.1407 163.199 58.47C162.753 58.1407 162.313 57.8049 161.879 57.4691Z" fill="#FF7F84"/>
<path d="M158.488 64.5984C158.481 64.6049 158.475 64.6179 158.462 64.6244C158.455 64.6309 158.449 64.6374 158.436 64.6504C158.455 64.6309 158.475 64.6114 158.488 64.5984Z" fill="#FF7F84"/>
<path d="M150.76 59.3612C148.98 60.1297 147.045 60.8077 144.961 61.3372C138.929 50.5077 137.408 39.7235 140.003 30.6763C140.101 39.4393 143.401 49.1 150.165 58.554C150.359 58.8188 150.559 59.09 150.76 59.3612Z" fill="#FF7F84"/>
<path d="M150.76 59.3612C151.407 60.2394 152.067 61.1048 152.76 61.9507C150.922 63.6491 149.42 65.3474 148.404 66.8198C148.404 66.8198 148.404 66.8198 148.404 66.8133C147.129 64.9923 145.984 63.1583 144.968 61.3308C147.045 60.8077 148.98 60.1297 150.76 59.3612Z" fill="#FF7F84"/>
<path d="M163.05 58.7928C163.05 58.7992 163.044 58.8056 163.044 58.8056C163.037 58.8183 163.031 58.8246 163.025 58.8374C163.037 58.8246 163.044 58.8119 163.05 58.7928Z" fill="#FF7F84"/>
<path d="M160.882 59.3805L162.054 60.4783C162.034 60.5106 162.008 60.5364 161.989 60.5687C161.898 60.6979 161.808 60.827 161.711 60.9562C161.672 61.0078 161.633 61.0595 161.594 61.1111C161.497 61.2403 161.394 61.3695 161.29 61.5051C161.258 61.5503 161.219 61.5955 161.186 61.6407C161.044 61.8215 160.895 62.0023 160.746 62.1831C160.591 62.3639 160.429 62.5512 160.267 62.7385C160.235 62.7772 160.196 62.816 160.157 62.8612C160.022 63.0097 159.886 63.1647 159.743 63.3132C159.698 63.3584 159.659 63.4036 159.614 63.4488C159.458 63.6103 159.303 63.7782 159.141 63.9396C159.115 63.9654 159.09 63.9913 159.064 64.0171C158.876 64.2108 158.682 64.3981 158.488 64.5918C158.468 64.6112 158.455 64.6241 158.436 64.6435C158.248 64.8243 158.054 65.0116 157.86 65.1924C157.84 65.2053 157.827 65.2247 157.808 65.2376C157.031 64.495 156.287 63.72 155.582 62.9257C157.983 61.9506 159.814 60.6979 160.882 59.3805Z" fill="#FF7F84"/>
<path d="M154.048 63.4876C153.614 62.9774 153.181 62.4673 152.76 61.9507C150.922 63.649 149.42 65.3474 148.404 66.8198C148.527 66.9941 148.65 67.1749 148.773 67.3493C149.472 68.3244 150.203 69.2866 150.954 70.2294C150.993 70.21 151.025 70.1971 151.064 70.1777C151.181 70.1196 151.297 70.055 151.414 69.9905C151.517 69.9323 151.627 69.8742 151.737 69.8161C151.86 69.7451 151.977 69.6805 152.1 69.603C152.21 69.5384 152.326 69.4674 152.436 69.3964C152.559 69.3189 152.682 69.2414 152.812 69.1639C152.928 69.0864 153.051 69.0089 153.168 68.9314C153.291 68.8475 153.414 68.7635 153.543 68.6796C153.672 68.5956 153.795 68.4987 153.925 68.4083C154.048 68.3244 154.171 68.234 154.294 68.1436C154.43 68.0403 154.572 67.9369 154.708 67.8336C154.824 67.7432 154.941 67.6593 155.064 67.5688C155.226 67.4461 155.388 67.3105 155.556 67.1814C155.653 67.1039 155.75 67.0329 155.847 66.9489C156.099 66.7423 156.352 66.5356 156.604 66.3161C156.501 66.2063 156.423 66.1223 156.371 66.0707C156.319 66.0125 156.294 65.9867 156.294 65.9867C156.294 65.9867 156.319 66.0125 156.371 66.0707C156.423 66.1288 156.501 66.2063 156.604 66.3161C156.611 66.3096 156.611 66.3096 156.617 66.3031C156.902 66.0578 157.187 65.8059 157.472 65.5476C157.588 65.4443 157.698 65.3345 157.815 65.2312C157.038 64.4885 156.294 63.7136 155.588 62.9193C155.096 63.126 154.585 63.3197 154.048 63.4876ZM154.048 63.4941C154.43 63.9396 154.824 64.3852 155.219 64.8243C154.824 64.3788 154.43 63.9396 154.048 63.4941Z" fill="#FF7F84"/>
<path d="M160.882 59.3806C161.394 58.7477 161.737 58.102 161.873 57.4691C162.306 57.8114 162.746 58.1407 163.193 58.47V58.4765C163.148 58.5798 163.102 58.6832 163.05 58.7929C163.044 58.8058 163.038 58.8252 163.025 58.8446C163.018 58.864 163.005 58.8769 162.999 58.8963C162.953 58.9802 162.915 59.0706 162.863 59.1546C162.843 59.1998 162.817 59.2385 162.792 59.2837C162.746 59.3612 162.707 59.4387 162.662 59.5162C162.636 59.5614 162.604 59.6131 162.578 59.6647C162.533 59.7422 162.487 59.8197 162.436 59.8907C162.403 59.9424 162.371 59.9941 162.339 60.0457C162.287 60.1232 162.235 60.2007 162.183 60.2782C162.151 60.3299 162.112 60.3815 162.08 60.4332C162.073 60.4461 162.06 60.459 162.054 60.4719L160.882 59.3806Z" fill="#FF7F84"/>
<path d="M154.294 68.1501C154.43 68.0467 154.572 67.9434 154.708 67.8401C154.572 67.9434 154.436 68.0467 154.294 68.1501Z" fill="#FF7F84"/>
<path d="M155.064 67.5688C155.226 67.4462 155.388 67.3105 155.556 67.1814C155.394 67.317 155.226 67.4462 155.064 67.5688Z" fill="#FF7F84"/>
<path d="M153.543 68.6795C153.672 68.5956 153.795 68.4987 153.925 68.4083C153.802 68.4987 153.672 68.5891 153.543 68.6795Z" fill="#FF7F84"/>
<path d="M152.1 69.603C152.21 69.5384 152.326 69.4674 152.436 69.3964C152.326 69.4674 152.21 69.532 152.1 69.603Z" fill="#FF7F84"/>
<path d="M152.812 69.1639C152.928 69.0864 153.051 69.0089 153.168 68.9314C153.051 69.0089 152.928 69.0864 152.812 69.1639Z" fill="#FF7F84"/>
<path d="M151.414 69.9905C151.517 69.9324 151.627 69.8743 151.737 69.8162C151.627 69.8743 151.524 69.9324 151.414 69.9905Z" fill="#FF7F84"/>
<path d="M150.961 70.2298C150.993 70.2103 151.032 70.1908 151.071 70.1713C151.032 70.1908 150.993 70.2168 150.961 70.2298Z" fill="#FF7F84"/>
<path d="M162.869 59.1545C162.856 59.174 162.85 59.1935 162.837 59.213C162.85 59.1935 162.856 59.174 162.869 59.1545Z" fill="#FF7F84"/>
<path d="M163.044 58.8058C163.038 58.8253 163.025 58.8383 163.018 58.8578C163.018 58.8513 163.025 58.8448 163.025 58.8383C163.031 58.8318 163.038 58.8188 163.044 58.8058Z" fill="#FF7F84"/>
<path d="M159.853 63.1906C159.892 63.1453 159.937 63.1001 159.976 63.0549C159.937 63.1001 159.892 63.1453 159.853 63.1906Z" fill="#FF7F84"/>
<path d="M160.287 62.7133C160.313 62.6873 160.339 62.6548 160.365 62.6288C160.339 62.6548 160.313 62.6808 160.287 62.7133Z" fill="#FF7F84"/>
<path d="M161.083 61.7642C161.109 61.7252 161.142 61.6927 161.168 61.6537C161.142 61.6927 161.116 61.7317 161.083 61.7642Z" fill="#FF7F84"/>
<path d="M160.746 62.1835C160.76 62.164 160.773 62.151 160.786 62.1315C160.766 62.151 160.753 62.1705 160.733 62.1965C160.74 62.19 160.74 62.1835 160.746 62.1835Z" fill="#FF7F84"/>
<path d="M157.944 65.115C157.996 65.0698 158.041 65.0246 158.086 64.9794C158.041 65.0246 157.996 65.0698 157.944 65.115Z" fill="#FF7F84"/>
<path d="M159.439 63.6369C159.472 63.5979 159.504 63.5654 159.543 63.5264C159.504 63.5654 159.472 63.5979 159.439 63.6369Z" fill="#FF7F84"/>
<path d="M158.462 64.6241C158.449 64.6372 158.436 64.6503 158.423 64.6568C158.429 64.6503 158.429 64.6503 158.436 64.6437C158.449 64.6372 158.456 64.6307 158.462 64.6241Z" fill="#FF7F84"/>
<path d="M158.947 64.1402C158.967 64.1207 158.986 64.1012 159.012 64.0752C158.993 64.1012 158.967 64.1207 158.947 64.1402Z" fill="#FF7F84"/>
<path d="M161.432 61.3249C161.452 61.2989 161.478 61.2664 161.498 61.2404C161.478 61.2664 161.452 61.2989 161.432 61.3249Z" fill="#FF7F84"/>
<path d="M162.351 60.0268C162.364 60.0008 162.384 59.9813 162.397 59.9553C162.384 59.9748 162.371 60.0008 162.351 60.0268Z" fill="#FF7F84"/>
<path d="M158.566 64.5209C158.533 64.5534 158.501 64.5859 158.462 64.6184C158.468 64.6119 158.481 64.5989 158.488 64.5924C158.514 64.5729 158.54 64.5469 158.566 64.5209Z" fill="#FF7F84"/>
<path d="M163.2 58.47L163.193 58.4768L163.2 58.47Z" fill="#FF7F84"/>
<path d="M162.086 60.4273C162.106 60.4013 162.125 60.3688 162.145 60.3428C162.125 60.3753 162.106 60.4013 162.086 60.4273Z" fill="#FF7F84"/>
<path d="M161.711 60.9562C161.808 60.827 161.898 60.6979 161.989 60.5687C161.898 60.6914 161.808 60.8206 161.711 60.9562Z" fill="#FF7F84"/>
<path d="M161.594 61.1112C161.562 61.1564 161.529 61.1952 161.497 61.2404C161.478 61.2662 161.452 61.2985 161.432 61.3243C161.387 61.3824 161.342 61.447 161.29 61.5051C161.394 61.3695 161.497 61.2404 161.594 61.1112Z" fill="#FF7F84"/>
<path d="M163.2 58.47L163.193 58.4768L163.2 58.47Z" fill="#FF7F84"/>
<path d="M161.187 61.6407C161.18 61.6472 161.174 61.6537 161.174 61.6601C161.148 61.6989 161.115 61.7312 161.089 61.7699C160.992 61.8926 160.895 62.0088 160.792 62.1315C160.779 62.1509 160.766 62.1638 160.753 62.1832C160.895 61.9959 161.044 61.8151 161.187 61.6407Z" fill="#FF7F84"/>
<path d="M158.436 64.6436C158.429 64.65 158.429 64.65 158.423 64.6565C158.313 64.7662 158.203 64.8696 158.086 64.9793C158.041 65.0245 157.989 65.0697 157.944 65.115C157.918 65.1408 157.886 65.1666 157.86 65.1924C158.054 65.0116 158.248 64.8308 158.436 64.6436Z" fill="#FF7F84"/>
<path d="M160.151 62.8612C160.093 62.9258 160.034 62.9968 159.97 63.0614C159.931 63.1066 159.886 63.1518 159.847 63.197C159.808 63.2358 159.776 63.2745 159.737 63.3132C159.886 63.1583 160.022 63.0097 160.151 62.8612Z" fill="#FF7F84"/>
<path d="M160.746 62.1831C160.746 62.1896 160.74 62.1896 160.74 62.196C160.617 62.3381 160.494 62.4866 160.365 62.6287C160.339 62.6545 160.313 62.6868 160.287 62.7126C160.28 62.7191 160.274 62.732 160.261 62.7385C160.429 62.5512 160.591 62.3639 160.746 62.1831Z" fill="#FF7F84"/>
<path d="M162.183 60.2782C162.17 60.2976 162.157 60.3234 162.138 60.3428C162.118 60.3686 162.099 60.4009 162.08 60.4267L162.073 60.4332C162.118 60.388 162.151 60.3299 162.183 60.2782Z" fill="#FF7F84"/>
<path d="M159.614 63.4489C159.588 63.4747 159.569 63.5005 159.543 63.5263C159.51 63.5651 159.478 63.5974 159.439 63.6361C159.342 63.7394 159.245 63.8428 159.141 63.9396C159.303 63.7782 159.458 63.6103 159.614 63.4489Z" fill="#FF7F84"/>
<path d="M159.064 64.0171C159.044 64.0365 159.025 64.0558 159.005 64.0752C158.986 64.0946 158.967 64.114 158.941 64.1398C158.818 64.2689 158.688 64.3916 158.559 64.5208C158.533 64.5466 158.507 64.5724 158.481 64.5983C158.688 64.4045 158.876 64.2108 159.064 64.0171Z" fill="#FF7F84"/>
<path d="M163.025 58.8446C163.025 58.8511 163.018 58.8576 163.018 58.8641C163.012 58.8771 163.005 58.8836 162.999 58.8966C163.012 58.8771 163.018 58.8576 163.025 58.8446Z" fill="#FF7F84"/>
<path d="M162.869 59.1545C162.856 59.1739 162.85 59.1933 162.837 59.2127C162.824 59.2385 162.811 59.2579 162.798 59.2837C162.824 59.2385 162.843 59.1933 162.869 59.1545Z" fill="#FF7F84"/>
<path d="M162.442 59.8907C162.429 59.9101 162.416 59.9359 162.403 59.9553C162.39 59.9812 162.371 60.0005 162.358 60.0264C162.351 60.0328 162.351 60.0393 162.345 60.0457C162.377 59.9941 162.41 59.9424 162.442 59.8907Z" fill="#FF7F84"/>
<path d="M162.578 59.6583C162.61 59.6066 162.636 59.5614 162.662 59.5098C162.636 59.5614 162.61 59.6131 162.578 59.6583Z" fill="#FF7F84"/>
<path d="M140.003 30.6763C140.003 30.6763 139.745 25.9945 143.291 25.0452C146.838 24.0959 143.951 29.3525 143.951 29.3525C143.951 29.3525 144.055 30.0564 144.223 31.2446L141.499 31.5287L140.003 30.6763Z" fill="#FFADAF"/>
<path d="M239.356 78.844C239.285 78.7148 239.246 78.6438 239.246 78.6438C225.04 52.5096 205.119 51.16 198.873 51.4377C196.647 47.9893 193.417 45.1285 189.489 43.23C187.062 42.0611 183.755 41.3379 181.373 43.0556C179.121 44.6765 178.946 47.5695 179.282 49.9524C180.519 58.7671 185.871 66.5938 193.637 71.592C193.573 76.7711 193.476 88.6919 193.955 88.989C194.239 89.1698 197.216 89.8672 200.381 90.5324C196.867 95.4143 194.142 101.601 192.809 108.407C189.579 124.913 195.793 138.784 206.692 139.404C217.584 140.017 229.033 127.141 232.263 110.635C233.188 105.908 233.337 101.401 232.826 97.3581C237.201 99.5473 241.039 100.303 242.437 99.3729C244.844 97.7714 244.385 87.5683 239.356 78.844Z" fill="#2C3036"/>
<path d="M239.356 78.844C239.285 78.7148 239.246 78.6438 239.246 78.6438C225.04 52.5096 205.119 51.16 198.873 51.4376C196.647 47.9893 193.417 45.1285 189.489 43.23C187.295 42.1709 184.395 41.4928 182.098 42.6294C183.942 42.5519 185.897 43.1525 187.463 43.9145C191.301 45.7743 194.414 48.4477 196.511 51.5733C202.718 51.6507 222.425 53.8399 235.686 77.4362C235.686 77.4362 235.725 77.5008 235.79 77.617C240.502 85.5083 240.631 94.4586 238.191 95.7307C236.774 96.4734 232.994 95.6145 228.722 93.477C229.104 97.0416 229.182 101.782 228.134 106.057C223.694 124.132 209.015 137.912 210.368 128.045C214.348 98.9983 201.359 81.6272 199.08 79.225C194.524 89.2602 182.991 137.951 206.692 139.397C217.578 140.063 229.033 127.134 232.263 110.629C233.188 105.902 233.337 101.394 232.826 97.3516C237.201 99.5408 241.039 100.296 242.437 99.3664C244.844 97.7714 244.385 87.5683 239.356 78.844Z" fill="#151920"/>
<path d="M208.484 195.889C203.164 188.346 198.194 180.429 198.194 180.429C196.142 176.723 194.259 173.081 192.531 169.587C183.399 151.053 178.862 136.453 178.862 136.453L181.819 133.34L183.586 134.444C183.586 134.444 185.159 134.619 187.832 133.592L191.417 143.362C193.916 144.641 196.388 145.752 198.822 146.707C204.155 148.8 209.125 135.064 214.07 135.826C216.283 143.479 213.83 167.217 213.83 167.217C242.864 190.587 234.56 242.571 234.56 242.571C231.454 228.319 208.484 195.889 208.484 195.889Z" fill="#B100FF"/>
<path d="M216.283 173.752C211.792 168.638 210.407 171.143 207.598 161.67C205.675 155.173 201.352 149.575 198.822 146.701C204.155 148.793 209.248 135.168 214.193 135.93C216.089 144.292 213.83 167.211 213.83 167.211C242.864 190.581 234.56 242.565 234.56 242.565C236.845 194.236 216.283 173.752 216.283 173.752Z" fill="#8E00DF"/>
<path d="M190.427 153.934L187.476 146.604L181.282 133.902L178.862 136.453C178.862 136.453 183.405 151.054 192.531 169.587C194.252 173.087 196.142 176.723 198.194 180.429C198.194 180.429 203.158 188.353 208.484 195.889C208.484 195.889 231.454 228.319 234.56 242.571C232.69 225.478 209.682 193.513 209.682 193.513C194.835 170.058 190.427 153.934 190.427 153.934Z" fill="#C644FF"/>
<path d="M46.055 145.377C47.4077 145.306 48.8056 145.261 50.0418 144.712C51.2779 144.157 52.3329 142.949 52.2488 141.6C52.1128 139.41 49.3622 138.448 47.1617 138.545C43.615 138.7 40.1395 140.211 37.609 142.697C38.2109 141.328 37.6413 139.643 36.5475 138.623C35.4473 137.602 33.9263 137.157 32.4378 137.002C28.8199 136.64 25.0726 137.938 22.4579 140.457C19.8431 142.975 18.4128 146.669 18.6458 150.285C17.099 150.02 11.5783 151.17 14.5231 152.855C16.1864 153.805 21.5841 150.647 23.0792 150.091C30.4379 147.386 38.2173 145.784 46.055 145.377Z" fill="url(#paint0_linear)"/>
<path d="M197.618 25.5553C194.259 23.9345 190.531 22.2684 186.926 23.2435C183.327 24.2251 180.92 29.3266 183.722 31.787C185.431 33.2852 188.007 33.0333 190.259 32.6846C198.841 31.3672 233.24 31.7999 225.046 17.9805C221.707 12.3365 212.678 8.39734 206.536 10.5413C204.148 11.3743 192.485 23.0756 197.618 25.5553Z" fill="url(#paint1_linear)"/>
<path d="M123.092 74.3171C123.202 74.4721 123.318 74.6271 123.435 74.7821C123.318 74.6207 123.208 74.4721 123.092 74.3171Z" fill="#FFCFF4"/>
<path d="M117.727 65.2571C117.733 65.2766 117.74 65.2961 117.746 65.3156C117.746 65.3091 117.74 65.3026 117.74 65.2961C117.74 65.2766 117.733 65.2701 117.727 65.2571Z" fill="#FFB5E4"/>
<path d="M117.888 65.6509C117.901 65.6899 117.921 65.7289 117.934 65.7614C117.921 65.7289 117.908 65.6899 117.888 65.6509Z" fill="#FFB5E4"/>
<path d="M118.122 66.1877C118.102 66.1487 118.089 66.1097 118.07 66.0707C118.089 66.1097 118.102 66.1487 118.122 66.1877Z" fill="#FFB5E4"/>
<path d="M118.549 67.0786C118.536 67.0526 118.523 67.0266 118.51 67.0006C118.523 67.0266 118.536 67.0526 118.549 67.0786Z" fill="#FFB5E4"/>
<path d="M118.322 66.6267C118.303 66.5942 118.29 66.5552 118.27 66.5227C118.29 66.5552 118.309 66.5877 118.322 66.6267Z" fill="#FFB5E4"/>
<path d="M117.617 64.954C117.61 64.928 117.597 64.902 117.591 64.876C117.597 64.902 117.61 64.9345 117.617 64.954Z" fill="#FFB5E4"/>
<path d="M121.83 72.5356C121.804 72.4966 121.778 72.4576 121.752 72.4186C121.778 72.4576 121.798 72.4966 121.83 72.5356Z" fill="#F779D7"/>
<path d="M120.62 70.7008C120.62 70.7073 120.626 70.7073 120.626 70.7137C120.646 70.7396 120.658 70.7654 120.678 70.7977C120.691 70.8235 120.71 70.8493 120.73 70.8752C120.691 70.8106 120.652 70.7589 120.62 70.7008Z" fill="#F779D7"/>
<path d="M123.092 74.3176C123.073 74.2916 123.06 74.2721 123.04 74.2461C123.06 74.2721 123.079 74.2916 123.092 74.3176Z" fill="#F779D7"/>
<path d="M119.565 68.9637C119.584 69.0025 119.61 69.0412 119.629 69.08C119.636 69.0929 119.649 69.1058 119.655 69.1252C119.662 69.1381 119.668 69.1446 119.675 69.1575C119.636 69.0929 119.604 69.0283 119.565 68.9637Z" fill="#F779D7"/>
<path d="M118.788 67.5494C118.808 67.5884 118.834 67.6339 118.853 67.673C118.827 67.6274 118.808 67.5884 118.788 67.5494Z" fill="#F779D7"/>
<path d="M119.138 68.2017C119.15 68.221 119.157 68.2404 119.17 68.2598C119.183 68.2856 119.202 68.3179 119.215 68.3437C119.228 68.3696 119.241 68.3954 119.261 68.4212C119.215 68.3502 119.176 68.2727 119.138 68.2017Z" fill="#F779D7"/>
<path d="M121.144 71.5145C121.163 71.5468 121.189 71.5791 121.209 71.6179C121.215 71.6243 121.215 71.6308 121.222 71.6308C121.241 71.6566 121.26 71.6824 121.273 71.7147C121.228 71.6437 121.189 71.5791 121.144 71.5145Z" fill="#F779D7"/>
<path d="M124.289 75.8928C124.005 75.5312 123.72 75.1566 123.435 74.7756C123.72 75.1566 124.005 75.5312 124.289 75.8928Z" fill="#F779D7"/>
<path d="M126.192 78.211C126.076 78.0754 125.959 77.9398 125.843 77.8042C125.959 77.9398 126.076 78.0754 126.192 78.211Z" fill="#F779D7"/>
<path d="M125.351 77.2102C125.254 77.0939 125.157 76.9777 125.059 76.8615C125.157 76.9841 125.254 77.0939 125.351 77.2102Z" fill="#F779D7"/>
<path d="M129.803 81.9436C129.693 81.8468 129.577 81.737 129.46 81.6337C129.577 81.737 129.693 81.8468 129.803 81.9436Z" fill="#F779D7"/>
<path d="M128.451 80.6585C128.328 80.5358 128.205 80.4131 128.082 80.2839C128.205 80.4131 128.328 80.5358 128.451 80.6585Z" fill="#F779D7"/>
<path d="M129.143 81.3366C129.027 81.2268 128.904 81.1106 128.781 80.9879C128.904 81.1106 129.027 81.2268 129.143 81.3366Z" fill="#F779D7"/>
<path d="M126.975 79.0958C126.852 78.9602 126.729 78.8246 126.606 78.689C126.729 78.8246 126.852 78.9602 126.975 79.0958Z" fill="#F779D7"/>
<path d="M127.726 79.9094C127.603 79.7803 127.48 79.6511 127.357 79.5155C127.48 79.6511 127.603 79.7803 127.726 79.9094Z" fill="#F779D7"/>
<path d="M123.092 74.3171C123.208 74.4721 123.318 74.6271 123.435 74.7821C123.318 74.6207 123.208 74.4657 123.092 74.3171Z" fill="#F779D7"/>
<path d="M118.756 67.4978C118.762 67.5173 118.775 67.5303 118.782 67.5498C118.775 67.5303 118.769 67.5108 118.756 67.4978Z" fill="#F779D7"/>
<path d="M118.011 65.9351C118.031 65.9803 118.05 66.0255 118.07 66.0707C118.089 66.1094 118.102 66.1482 118.121 66.1869C118.128 66.2063 118.141 66.2256 118.147 66.245C118.102 66.1417 118.057 66.0384 118.011 65.9351Z" fill="#F779D7"/>
<path d="M118.238 66.4387C118.251 66.4646 118.264 66.4904 118.277 66.5162C118.296 66.5485 118.309 66.5872 118.328 66.6195C118.348 66.6583 118.367 66.7035 118.387 66.7422C118.335 66.6454 118.283 66.542 118.238 66.4387Z" fill="#F779D7"/>
<path d="M117.798 65.4185C117.83 65.4959 117.856 65.5734 117.888 65.6509C117.901 65.6897 117.921 65.7284 117.934 65.7607C117.888 65.6445 117.843 65.5347 117.798 65.4185Z" fill="#F779D7"/>
<path d="M117.591 64.876C117.597 64.9018 117.61 64.9276 117.617 64.9535C117.649 65.0503 117.688 65.1472 117.727 65.2505C117.733 65.2634 117.733 65.2764 117.74 65.2893C117.688 65.1472 117.636 65.0116 117.591 64.876Z" fill="#F779D7"/>
<path d="M118.49 66.9618C118.497 66.9747 118.503 66.9876 118.51 67.007C118.523 67.0328 118.536 67.0587 118.549 67.0845C118.581 67.1491 118.62 67.2201 118.652 67.2847C118.594 67.1749 118.542 67.0651 118.49 66.9618Z" fill="#F779D7"/>
<path d="M117.727 65.257C117.688 65.1537 117.649 65.0568 117.617 64.96C117.655 65.0568 117.688 65.1537 117.727 65.257Z" fill="#FFCFF4"/>
<path d="M121.222 71.6307C121.267 71.6953 121.306 71.7599 121.351 71.8245C121.325 71.7857 121.299 71.747 121.28 71.7147C121.254 71.6824 121.234 71.6566 121.222 71.6307Z" fill="#FFCFF4"/>
<path d="M119.215 68.3438C119.26 68.4277 119.306 68.5116 119.358 68.5956C119.325 68.5375 119.293 68.4794 119.26 68.4212C119.241 68.3954 119.228 68.3696 119.215 68.3438Z" fill="#FFCFF4"/>
<path d="M119.655 69.1251C119.668 69.1446 119.681 69.1641 119.688 69.1836C119.681 69.1771 119.675 69.1641 119.675 69.1576C119.668 69.1446 119.662 69.1316 119.655 69.1251Z" fill="#FFCFF4"/>
<path d="M120.678 70.7977C120.756 70.9204 120.833 71.0367 120.911 71.1593C120.846 71.0625 120.788 70.9721 120.73 70.8752C120.71 70.8429 120.691 70.8171 120.678 70.7977Z" fill="#FFCFF4"/>
<path d="M120.594 70.6621C120.607 70.6816 120.613 70.6946 120.626 70.7141C120.626 70.7076 120.62 70.7076 120.62 70.7011C120.607 70.6881 120.6 70.6751 120.594 70.6621Z" fill="#FFCFF4"/>
<path d="M122.956 74.1299C123.001 74.1945 123.047 74.2526 123.092 74.3171C123.073 74.2913 123.06 74.2719 123.04 74.2461C123.014 74.2074 122.982 74.1686 122.956 74.1299Z" fill="#FFCFF4"/>
<path d="M121.034 71.3466C121.092 71.437 121.15 71.5274 121.209 71.6178C121.189 71.5855 121.163 71.5532 121.144 71.5145C121.105 71.4563 121.066 71.3982 121.034 71.3466Z" fill="#FFCFF4"/>
<path d="M119.422 68.7184C119.493 68.8411 119.558 68.9573 119.629 69.08C119.604 69.0413 119.584 69.0025 119.565 68.9638C119.519 68.8798 119.468 68.7959 119.422 68.7184Z" fill="#FFCFF4"/>
<path d="M122.807 73.9232C122.691 73.7682 122.581 73.6132 122.471 73.4583C122.587 73.6132 122.697 73.7682 122.807 73.9232Z" fill="#FFCFF4"/>
<path d="M118.853 67.6721C118.833 67.6334 118.807 67.5882 118.788 67.5494C118.782 67.5301 118.769 67.5171 118.762 67.4978C118.762 67.4913 118.756 67.4913 118.756 67.4849C118.885 67.7367 119.027 67.995 119.17 68.2598C119.157 68.2404 119.15 68.221 119.138 68.2017C119.04 68.0209 118.943 67.8465 118.853 67.6721Z" fill="#FFCFF4"/>
<path d="M121.752 72.4186C121.649 72.2701 121.552 72.1216 121.455 71.9795C121.597 72.1926 121.739 72.4057 121.888 72.6188C121.869 72.593 121.849 72.5607 121.83 72.5348C121.798 72.4961 121.778 72.4574 121.752 72.4186Z" fill="#FFCFF4"/>
<path d="M118.147 66.245C118.141 66.2256 118.128 66.2063 118.121 66.1869C118.173 66.2967 118.218 66.4065 118.277 66.5162C118.264 66.4904 118.251 66.4646 118.238 66.4387C118.206 66.3742 118.18 66.3096 118.147 66.245Z" fill="#FFCFF4"/>
<path d="M117.966 65.8381C117.998 65.9156 118.031 65.9931 118.07 66.0706C118.05 66.0254 118.031 65.9802 118.011 65.935C117.998 65.9027 117.979 65.8704 117.966 65.8381Z" fill="#FFCFF4"/>
<path d="M120.516 70.5394C120.387 70.3327 120.257 70.1261 120.134 69.9259C120.257 70.1325 120.387 70.3327 120.516 70.5394Z" fill="#FFCFF4"/>
<path d="M120.082 69.8419C119.979 69.6676 119.875 69.4997 119.778 69.3318C119.875 69.4997 119.979 69.6676 120.082 69.8419Z" fill="#FFCFF4"/>
<path d="M117.778 65.3798C117.811 65.4702 117.85 65.5606 117.888 65.651C117.856 65.5735 117.824 65.496 117.798 65.4185C117.791 65.4056 117.785 65.3927 117.778 65.3798Z" fill="#FFCFF4"/>
<path d="M122.335 73.2581C122.205 73.0708 122.076 72.89 121.946 72.7028C122.076 72.89 122.199 73.0773 122.335 73.2581Z" fill="#FFCFF4"/>
<path d="M118.549 67.0781C118.594 67.175 118.646 67.2719 118.697 67.3687C118.684 67.3364 118.672 67.3106 118.652 67.2848C118.613 67.2137 118.581 67.1427 118.549 67.0781Z" fill="#FFCFF4"/>
<path d="M118.322 66.6261C118.354 66.6971 118.387 66.7682 118.426 66.8392C118.413 66.8069 118.4 66.7811 118.387 66.7553C118.367 66.71 118.341 66.6648 118.322 66.6261Z" fill="#FFCFF4"/>
<path d="M118.477 66.936C118.49 66.962 118.503 66.9815 118.51 67.0075C118.503 66.9945 118.497 66.9815 118.49 66.962C118.484 66.949 118.477 66.9425 118.477 66.936Z" fill="#FFCFF4"/>
<path d="M121.733 64.8179C123.195 66.1934 124.878 68.0532 126.593 70.2359C127.098 69.5126 127.577 68.7571 128.011 67.9757C128.509 68.4019 129.02 68.8217 129.545 69.2414C129.719 68.9766 129.907 68.7119 130.075 68.4407C136.075 59.0706 138.741 48.5317 138.392 38.1994C138.256 37.6764 138.114 37.1533 137.965 36.6302C137.926 36.5011 137.887 36.3719 137.848 36.2428C137.576 35.5066 136.936 34.6542 136.062 33.9374C135.589 33.5499 135.104 33.2529 134.645 33.0462C133.667 32.6136 132.826 32.6136 132.489 33.1431C131.997 33.918 132.8 35.526 134.282 36.7335C134.347 36.7852 134.405 36.8304 134.47 36.8756C133.907 42.7004 132.017 48.4348 128.684 53.6462C126.71 56.7265 124.354 59.4193 121.713 61.7247C122.199 62.28 122.71 62.8419 123.247 63.4166L121.733 64.8179Z" fill="#FFADAF"/>
<path d="M127.765 71.7728C128.38 70.9527 128.975 70.1003 129.545 69.2414C129.02 68.8281 128.509 68.4019 128.011 67.9757C127.571 68.7571 127.098 69.5126 126.593 70.2359C126.91 70.6363 127.228 71.0431 127.538 71.4693C127.616 71.5662 127.687 71.6695 127.765 71.7728Z" fill="#FFADAF"/>
<path d="M119.875 63.2423C120.432 63.6491 121.06 64.1786 121.739 64.8115L123.254 63.4102C122.717 62.8419 122.212 62.2736 121.72 61.7183C121.118 62.2478 120.51 62.7579 119.875 63.2423Z" fill="#FFADAF"/>
<path d="M125.105 72.1731C125.629 71.5532 126.121 70.9074 126.593 70.2358C124.878 68.0532 123.196 66.1934 121.733 64.8179L119.849 66.5614C120.943 68.4083 122.762 70.3779 125.105 72.1731Z" fill="#FFADAF"/>
<path d="M126.606 73.2451C127.001 72.7608 127.383 72.27 127.765 71.7728C127.687 71.6694 127.616 71.5726 127.538 71.4693C127.221 71.0495 126.904 70.6362 126.593 70.2358C126.127 70.9074 125.629 71.5532 125.105 72.1731C125.584 72.5412 126.089 72.8964 126.606 73.2451Z" fill="#FFADAF"/>
<path d="M124.516 75.6797C124.471 75.7313 124.399 75.8088 124.302 75.9121C124.399 75.8088 124.471 75.7313 124.516 75.6797Z" fill="#FFADAF"/>
<path d="M118.801 64.0365C118.963 64.8243 119.325 65.6767 119.849 66.5614L121.733 64.8179C121.06 64.185 120.432 63.6555 119.869 63.2487C119.519 63.5134 119.163 63.7782 118.801 64.0365Z" fill="#FFADAF"/>
<path d="M118.801 64.0365C118.4 64.3206 117.998 64.5983 117.591 64.8695C117.998 64.5983 118.4 64.3206 118.801 64.0365Z" fill="#FF7F84"/>
<path d="M122.412 73.3678C122.419 73.3808 122.432 73.3938 122.438 73.4003C122.445 73.4133 122.451 73.4198 122.465 73.4328C122.445 73.4133 122.425 73.3938 122.412 73.3678Z" fill="#FF7F84"/>
<path d="M129.545 69.2414C131.292 70.6298 133.175 71.9472 135.201 73.1225C140.431 61.9314 141.337 49.5843 138.398 38.1995C138.748 48.5317 136.081 59.0706 130.082 68.4407C129.907 68.7119 129.726 68.9702 129.545 69.2414Z" fill="#FF7F84"/>
<path d="M129.545 69.2413C128.969 70.1067 128.38 70.9526 127.765 71.7727C129.609 74.2654 131.137 76.6806 132.185 78.6889C132.185 78.6889 132.185 78.6889 132.185 78.6824C133.318 76.8678 134.321 75.008 135.201 73.1224C133.182 71.9406 131.292 70.6233 129.545 69.2413Z" fill="#FF7F84"/>
<path d="M117.746 65.2893C117.746 65.2958 117.753 65.3023 117.753 65.3088C117.759 65.3218 117.766 65.3413 117.772 65.3543C117.759 65.3348 117.753 65.3153 117.746 65.2893Z" fill="#FF7F84"/>
<path d="M119.849 66.5615L118.788 67.5495C118.807 67.5883 118.833 67.6335 118.853 67.6722C118.943 67.8466 119.04 68.0274 119.138 68.2082C119.176 68.2793 119.215 68.3503 119.254 68.4213C119.351 68.6021 119.455 68.783 119.565 68.9638C119.604 69.0283 119.636 69.0865 119.675 69.151C119.817 69.4029 119.972 69.6547 120.128 69.9066C120.283 70.1649 120.451 70.4297 120.62 70.6944C120.658 70.7525 120.691 70.8107 120.73 70.8688C120.866 71.0819 121.001 71.295 121.144 71.5145C121.189 71.5791 121.228 71.6437 121.273 71.7147C121.429 71.9472 121.584 72.1861 121.746 72.4186C121.772 72.4574 121.798 72.4961 121.823 72.5349C122.011 72.8125 122.205 73.0902 122.406 73.3679C122.425 73.3937 122.438 73.4131 122.458 73.4389C122.645 73.7037 122.84 73.9749 123.04 74.2461C123.06 74.272 123.073 74.2913 123.092 74.3172C123.797 73.6456 124.471 72.9288 125.105 72.1797C122.762 70.378 120.943 68.4084 119.849 66.5615Z" fill="#FF7F84"/>
<path d="M125.105 72.1732C124.47 72.9287 123.797 73.6391 123.092 74.3107C123.208 74.4657 123.318 74.6206 123.435 74.7756C123.72 75.1566 124.005 75.5312 124.289 75.8928C124.296 75.8993 124.296 75.9057 124.302 75.9122C124.399 75.8089 124.47 75.7314 124.516 75.6797C124.561 75.628 124.587 75.6022 124.587 75.6022C124.587 75.6022 124.561 75.628 124.516 75.6797C124.47 75.7314 124.399 75.8089 124.302 75.9122C124.555 76.2351 124.807 76.5515 125.059 76.8615C125.157 76.9777 125.254 77.0939 125.351 77.2102C125.512 77.4104 125.681 77.6105 125.843 77.7978C125.959 77.9399 126.076 78.069 126.192 78.2047C126.328 78.3661 126.47 78.5275 126.606 78.6825C126.729 78.8246 126.852 78.9537 126.975 79.0894C127.105 79.2314 127.228 79.3735 127.357 79.5091C127.48 79.6447 127.603 79.7739 127.726 79.903C127.842 80.0257 127.965 80.1549 128.082 80.2776C128.205 80.4067 128.328 80.5294 128.451 80.6521C128.561 80.7619 128.671 80.8781 128.781 80.9814C128.904 81.0977 129.02 81.2139 129.143 81.3302C129.247 81.4335 129.357 81.5303 129.46 81.6272C129.577 81.7305 129.693 81.8403 129.803 81.9372C129.842 81.9695 129.875 82.0018 129.913 82.034C130.587 81.1235 131.234 80.1807 131.855 79.212C131.965 79.0377 132.075 78.8569 132.185 78.6825C131.137 76.6742 129.616 74.259 127.765 71.7664C127.389 72.2701 127.001 72.7544 126.606 73.2387C126.089 72.8964 125.584 72.5413 125.105 72.1732ZM125.558 74.5044C125.914 74.0911 126.263 73.6714 126.613 73.2452C126.263 73.6714 125.914 74.0911 125.558 74.5044Z" fill="#FF7F84"/>
<path d="M119.849 66.5615C119.325 65.6768 118.963 64.8243 118.801 64.0365C118.4 64.3206 117.998 64.5983 117.591 64.8695V64.876C117.636 65.0116 117.688 65.1472 117.746 65.2893C117.753 65.3087 117.765 65.3345 117.772 65.3539C117.778 65.3732 117.791 65.3991 117.798 65.4184C117.843 65.5282 117.888 65.6445 117.94 65.7607C117.966 65.8188 117.992 65.8769 118.011 65.9286C118.057 66.0319 118.102 66.1352 118.147 66.2386C118.18 66.3031 118.206 66.3677 118.238 66.4323C118.283 66.5356 118.335 66.6389 118.387 66.7423C118.419 66.8133 118.451 66.8843 118.49 66.9554C118.542 67.0587 118.594 67.1685 118.652 67.2783C118.691 67.3493 118.723 67.4203 118.762 67.4914C118.769 67.5107 118.782 67.5236 118.788 67.543L119.849 66.5615Z" fill="#FF7F84"/>
<path d="M126.606 78.689C126.47 78.5341 126.328 78.3726 126.192 78.2112C126.328 78.3662 126.47 78.5276 126.606 78.689Z" fill="#FF7F84"/>
<path d="M125.843 77.7978C125.681 77.6041 125.519 77.4039 125.351 77.2102C125.513 77.4104 125.681 77.6106 125.843 77.7978Z" fill="#FF7F84"/>
<path d="M127.357 79.5156C127.234 79.38 127.105 79.2379 126.975 79.0958C127.098 79.2379 127.228 79.38 127.357 79.5156Z" fill="#FF7F84"/>
<path d="M128.787 80.9879C128.677 80.8781 128.567 80.7684 128.457 80.6586C128.561 80.7748 128.677 80.8846 128.787 80.9879Z" fill="#FF7F84"/>
<path d="M128.082 80.284C127.965 80.1613 127.849 80.0386 127.726 79.9094C127.842 80.0386 127.965 80.1613 128.082 80.284Z" fill="#FF7F84"/>
<path d="M129.46 81.6336C129.357 81.5367 129.253 81.4399 129.143 81.3365C129.253 81.4399 129.357 81.5367 129.46 81.6336Z" fill="#FF7F84"/>
<path d="M129.908 82.0411C129.908 82.0411 129.914 82.0411 129.908 82.0411C129.875 82.0086 129.836 81.9761 129.803 81.9436C129.836 81.9761 129.875 82.0086 129.908 82.0411Z" fill="#FF7F84"/>
<path d="M117.934 65.7672C117.947 65.7932 117.953 65.8192 117.966 65.8452C117.96 65.8127 117.947 65.7932 117.934 65.7672Z" fill="#FF7F84"/>
<path d="M117.753 65.3087C117.759 65.3282 117.772 65.3542 117.779 65.3737C117.779 65.3672 117.772 65.3607 117.772 65.3477C117.766 65.3412 117.759 65.3282 117.753 65.3087Z" fill="#FF7F84"/>
<path d="M121.034 71.3466C120.995 71.282 120.95 71.2174 120.911 71.1593C120.95 71.2174 120.989 71.282 121.034 71.3466Z" fill="#FF7F84"/>
<path d="M120.594 70.6629C120.568 70.6239 120.542 70.5784 120.516 70.5394C120.542 70.5784 120.568 70.6239 120.594 70.6629Z" fill="#FF7F84"/>
<path d="M119.778 69.3318C119.746 69.2801 119.72 69.2349 119.688 69.1832C119.72 69.2284 119.752 69.2801 119.778 69.3318Z" fill="#FF7F84"/>
<path d="M120.128 69.9134C120.115 69.8874 120.102 69.8679 120.082 69.8419C120.102 69.8744 120.115 69.9004 120.135 69.9264C120.135 69.9199 120.128 69.9199 120.128 69.9134Z" fill="#FF7F84"/>
<path d="M122.956 74.1299C122.904 74.0653 122.859 73.9943 122.807 73.9297C122.859 73.9943 122.904 74.0588 122.956 74.1299Z" fill="#FF7F84"/>
<path d="M121.448 71.9795C121.416 71.9278 121.383 71.8761 121.344 71.8245C121.383 71.8761 121.416 71.9278 121.448 71.9795Z" fill="#FF7F84"/>
<path d="M122.438 73.4066C122.451 73.4261 122.464 73.4391 122.477 73.4586C122.471 73.4521 122.471 73.4456 122.464 73.4391C122.451 73.4261 122.445 73.4196 122.438 73.4066Z" fill="#FF7F84"/>
<path d="M121.947 72.7098C121.927 72.6773 121.901 72.6513 121.882 72.6188C121.908 72.6448 121.927 72.6773 121.947 72.7098Z" fill="#FF7F84"/>
<path d="M119.423 68.7191C119.403 68.6801 119.377 68.6411 119.358 68.6021C119.377 68.6346 119.403 68.6736 119.423 68.7191Z" fill="#FF7F84"/>
<path d="M118.478 66.9366C118.465 66.9041 118.445 66.8716 118.432 66.8391C118.445 66.8651 118.458 66.9041 118.478 66.9366Z" fill="#FF7F84"/>
<path d="M122.335 73.2581C122.367 73.3033 122.399 73.3549 122.438 73.4001C122.432 73.3872 122.419 73.3743 122.412 73.3678C122.386 73.3291 122.361 73.2968 122.335 73.2581Z" fill="#FF7F84"/>
<path d="M118.75 67.4856C118.73 67.4467 118.71 67.4077 118.691 67.3687C118.71 67.4077 118.73 67.4467 118.75 67.4856Z" fill="#FF7F84"/>
<path d="M119.137 68.2017C119.04 68.0209 118.943 67.8466 118.853 67.6658C118.943 67.8466 119.04 68.0209 119.137 68.2017Z" fill="#FF7F84"/>
<path d="M119.26 68.4213C119.293 68.4794 119.325 68.5375 119.358 68.5956C119.377 68.6344 119.403 68.6731 119.422 68.7119C119.468 68.7958 119.519 68.8798 119.565 68.9637C119.461 68.7829 119.358 68.6021 119.26 68.4213Z" fill="#FF7F84"/>
<path d="M119.675 69.151C119.681 69.1575 119.688 69.1704 119.688 69.1768C119.714 69.2285 119.746 69.2737 119.778 69.3254C119.875 69.4933 119.979 69.6612 120.082 69.8355C120.095 69.8614 120.108 69.8807 120.128 69.9066C119.972 69.6547 119.824 69.4029 119.675 69.151Z" fill="#FF7F84"/>
<path d="M122.458 73.4388C122.464 73.4453 122.464 73.4518 122.471 73.4582C122.581 73.6132 122.691 73.7682 122.807 73.9232C122.859 73.9877 122.904 74.0588 122.956 74.1234C122.982 74.1621 123.014 74.2008 123.047 74.2396C122.846 73.9748 122.652 73.7101 122.458 73.4388Z" fill="#FF7F84"/>
<path d="M120.723 70.8688C120.781 70.9656 120.846 71.056 120.904 71.1529C120.943 71.2175 120.989 71.2821 121.027 71.3402C121.066 71.3983 121.105 71.4564 121.137 71.5081C121.001 71.3014 120.859 71.0819 120.723 70.8688Z" fill="#FF7F84"/>
<path d="M120.128 69.913C120.134 69.9194 120.134 69.9259 120.134 69.9259C120.257 70.1261 120.387 70.3327 120.516 70.5394C120.542 70.5781 120.568 70.6233 120.594 70.6621C120.6 70.675 120.607 70.6879 120.62 70.7008C120.451 70.436 120.283 70.1713 120.128 69.913Z" fill="#FF7F84"/>
<path d="M118.652 67.2783C118.665 67.3106 118.678 67.3364 118.697 67.3623C118.717 67.401 118.736 67.4398 118.756 67.4785C118.756 67.485 118.762 67.485 118.762 67.4914C118.723 67.4204 118.684 67.3494 118.652 67.2783Z" fill="#FF7F84"/>
<path d="M121.273 71.7147C121.299 71.7535 121.325 71.7922 121.344 71.8245C121.377 71.8762 121.409 71.9278 121.448 71.9795C121.545 72.128 121.649 72.2701 121.746 72.4186C121.584 72.1797 121.429 71.9472 121.273 71.7147Z" fill="#FF7F84"/>
<path d="M121.83 72.5348C121.849 72.5606 121.869 72.5929 121.888 72.6187C121.908 72.651 121.933 72.6769 121.953 72.7091C122.082 72.89 122.205 73.0772 122.341 73.2645C122.367 73.3032 122.393 73.3355 122.419 73.3743C122.212 73.0901 122.018 72.8125 121.83 72.5348Z" fill="#FF7F84"/>
<path d="M117.772 65.3539C117.772 65.3604 117.778 65.3669 117.778 65.3799C117.785 65.3929 117.791 65.4059 117.798 65.4254C117.785 65.3994 117.778 65.3799 117.772 65.3539Z" fill="#FF7F84"/>
<path d="M117.934 65.7672C117.947 65.793 117.953 65.8189 117.966 65.8447C117.979 65.877 117.992 65.9093 118.011 65.9416C117.985 65.877 117.96 65.8189 117.934 65.7672Z" fill="#FF7F84"/>
<path d="M118.387 66.7488C118.4 66.7811 118.413 66.8069 118.426 66.8327C118.439 66.865 118.458 66.8973 118.471 66.9296C118.477 66.936 118.477 66.949 118.484 66.9554C118.451 66.8908 118.419 66.8198 118.387 66.7488Z" fill="#FF7F84"/>
<path d="M118.238 66.4387C118.206 66.3741 118.18 66.3096 118.147 66.245C118.18 66.3096 118.206 66.3741 118.238 66.4387Z" fill="#FF7F84"/>
<path d="M93.7282 119.308L89.4696 119.973L94.4661 120.651L93.7282 119.308Z" stroke="#1D1D1B" stroke-width="0.4072" stroke-miterlimit="10"/>
<path d="M102.854 124.351L103.268 121.852L94.466 120.651L96.6018 124.584L102.854 124.351Z" stroke="#1D1D1B" stroke-width="0.4072" stroke-miterlimit="10"/>
<path d="M99.0353 129.059C101.598 127.728 102.511 126.424 102.511 126.424L102.854 124.358L96.6018 124.584L99.0353 129.059Z" stroke="#1D1D1B" stroke-width="0.4072" stroke-miterlimit="10"/>
<path d="M99.0353 129.059L96.6018 124.584L94.466 120.657L89.4696 119.979L73.6454 122.465C73.6454 122.465 66.1637 137.886 67.6846 161.993C67.6846 161.993 32.0624 167.663 1.19714 206.977C1.19714 206.977 16.7883 199.738 47.097 192.111C47.097 192.111 68.6295 189.102 85.8776 171.46C86.6672 170.653 87.4503 169.807 88.2205 168.935C90.4469 166.416 92.5762 163.627 94.5501 160.546C97.2619 156.31 99.6825 151.518 101.65 146.1C102.55 143.627 103.352 141.025 104.045 138.287L99.0353 129.059Z" fill="#B100FF"/>
<path d="M96.6018 124.584L94.466 120.657L89.4696 119.979L73.6454 122.465C73.6454 122.465 66.1637 137.886 67.6846 161.993C72.8688 132.985 76.6873 131.306 76.6873 131.306C80.9459 131.842 84.5508 131.952 87.5862 131.777C93.094 131.467 96.7313 130.253 99.0353 129.052L96.6018 124.584Z" fill="#8E00DF"/>
<path d="M85.884 171.453C85.3922 171.841 84.8615 172.267 84.2854 172.745C84.2854 172.745 71.2378 183.238 57.9506 184.646C57.9506 184.646 32.5931 187.242 1.20361 206.977C1.20361 206.977 16.7948 199.738 47.1035 192.111C47.1035 192.105 68.636 189.096 85.884 171.453Z" fill="#C644FF"/>
<path d="M132.515 186.157C130.347 177.117 127.648 168.089 127.648 168.089C126.205 164.072 124.704 160.223 123.196 156.588C115.228 137.35 107.184 124.19 107.184 124.19L102.847 124.345L102.504 126.411C102.504 126.411 101.592 127.716 99.0288 129.046L104.045 138.267C103.352 141.005 102.543 143.608 101.65 146.081C99.6825 151.499 97.262 156.291 94.5502 160.527C100.712 166.203 107.203 171.072 107.203 171.072C105.572 208.559 150.521 236.934 150.521 236.934C141.796 225.104 132.515 186.157 132.515 186.157Z" fill="#B100FF"/>
<path d="M110.536 177.297C109.656 170.497 112.478 171.124 107.164 162.69C103.527 156.911 102.161 149.917 101.656 146.094C99.689 151.512 97.2684 156.304 94.5566 160.54C100.718 166.216 107.21 171.085 107.21 171.085C105.579 208.572 150.527 236.947 150.527 236.947C112.368 206.467 110.536 177.297 110.536 177.297Z" fill="#8E00DF"/>
<path d="M127.648 168.095C126.205 164.079 124.703 160.23 123.195 156.594C123.681 158.461 126.47 169.406 126.839 177.214C126.839 177.214 125.998 204.878 150.527 236.947C141.796 225.104 132.509 186.157 132.509 186.157C130.347 177.117 127.648 168.095 127.648 168.095Z" fill="#C644FF"/>
<path d="M199.611 124.661C198.944 124.745 198.284 124.829 197.631 124.919C196.763 125.036 195.903 125.158 195.061 125.281C190.958 125.888 187.114 126.579 183.509 127.347C171.115 129.976 161.581 133.443 154.352 137.092C153.575 137.486 152.825 137.88 152.1 138.274C151.698 138.493 151.297 138.713 150.915 138.939C138.476 146.029 134.204 153.372 134.153 156.304C134.12 158.344 134.696 160.843 136.586 163.794C140.062 169.212 147.984 176.148 164.72 184.504C177.593 190.93 188.343 197.187 195.89 201.849C203.494 206.544 207.85 209.624 207.85 209.624C204.62 204.652 201.598 200.158 198.776 196.109C173.949 160.443 164.578 158.628 164.578 158.628C173.043 158.673 180.124 158.066 186.046 156.982C193.967 155.529 199.818 153.217 204.103 150.472C204.122 150.459 204.135 150.453 204.155 150.44C210.995 146.042 213.856 140.527 214.872 135.626C215.371 133.217 215.429 130.957 215.299 129.046C215.06 125.604 214.206 123.286 214.206 123.286C209.028 123.615 204.174 124.086 199.611 124.661Z" fill="#B100FF"/>
<path d="M199.611 124.661C204.394 133.024 206.937 148.897 166.241 157.608C166.241 157.608 160.662 158.674 162.94 159.384C162.94 159.384 173.813 163.368 198.53 196.612C201.443 200.526 204.543 204.846 207.844 209.612C204.614 204.639 201.592 200.145 198.77 196.096C173.943 160.43 164.571 158.615 164.571 158.615C173.037 158.661 180.117 158.054 186.039 156.969C193.961 155.516 199.812 153.204 204.096 150.459C204.116 150.447 204.129 150.44 204.148 150.427C210.989 146.029 213.85 140.515 214.866 135.613C215.364 133.205 215.422 130.944 215.293 129.033C215.053 125.591 214.199 123.273 214.199 123.273C209.028 123.615 204.174 124.086 199.611 124.661Z" fill="#8E00DF"/>
<path d="M196.401 200.887C179.936 189.134 160.41 178.079 147.142 171.866C141.777 169.354 138.528 166.5 136.58 163.788C140.055 169.206 147.977 176.141 164.714 184.498C177.587 190.923 188.337 197.181 195.883 201.843C203.488 206.538 207.844 209.618 207.844 209.618C204.303 206.706 200.446 203.774 196.401 200.887Z" fill="#C644FF"/>
<path d="M76.9203 88.5627L74.778 79.3864C74.778 79.3864 45.7638 89.428 32.0041 112.721C32.0041 112.721 29.1111 117.067 34.6512 115.078C34.936 114.975 35.2337 114.865 35.5638 114.729C35.5638 114.729 68.0082 101.794 79.5285 99.7344L76.9203 88.5627Z" fill="#FFADAF"/>
<path d="M79.5285 99.7345L76.9203 88.5627C71.0566 90.7777 48.3655 100.025 34.6512 115.078C34.936 114.975 35.2337 114.865 35.5638 114.729C35.5638 114.729 68.0083 101.794 79.5285 99.7345Z" fill="#FF7F84"/>
<path d="M32.7614 112.062C32.7614 112.062 30.9557 112.927 29.1888 112.333C27.422 111.739 26.7424 112.43 26.7036 113.334C26.6777 113.935 27.299 118.042 34.237 115.233L34.0947 111.972L32.7614 112.062Z" fill="#FFADAF"/>
<path d="M32.9247 113.308C33.173 113.115 33.0434 112.534 32.6353 112.011C32.2271 111.487 31.695 111.219 31.4467 111.411C31.1984 111.604 31.3279 112.185 31.7361 112.708C32.1442 113.232 32.6764 113.5 32.9247 113.308Z" fill="#FFADAF"/>
<path d="M91.3271 72.9997C91.3271 72.9997 80.6676 69.9001 56.721 85.9925C56.721 85.9925 55.5236 91.7269 58.3001 98.8433C61.8727 96.0277 71.2831 89.9446 89.0036 86.7093L83.4376 101.814C84.8356 101.556 86.1494 101.472 87.295 101.627L91.3012 76.4998L91.3271 72.9997Z" fill="#FFDCF7"/>
<path d="M58.3001 98.8433C59.6528 102.311 61.9439 106.102 65.7689 109.724C65.7689 109.724 75.8459 103.215 83.4376 101.814L89.0036 86.7094C71.2831 89.9446 61.8727 96.0277 58.3001 98.8433Z" fill="#FFB5E4"/>
<path d="M111.468 127.037C111.462 127.018 111.455 126.992 111.449 126.954C111.436 126.908 111.423 126.844 111.41 126.76C111.397 126.695 111.378 126.618 111.365 126.527C111.358 126.489 111.345 126.443 111.339 126.405C111.332 126.372 111.326 126.334 111.319 126.295C111.293 126.159 111.261 126.011 111.222 125.836C111.216 125.804 111.209 125.772 111.203 125.739C111.183 125.662 111.17 125.578 111.151 125.494C111.151 125.488 111.145 125.475 111.145 125.468C111.125 125.378 111.106 125.287 111.086 125.191C111.073 125.139 111.067 125.087 111.054 125.029C111.041 124.958 111.022 124.887 111.009 124.81C111.002 124.771 110.996 124.739 110.983 124.7C110.963 124.596 110.937 124.487 110.918 124.377C110.918 124.364 110.912 124.351 110.912 124.332C110.886 124.209 110.86 124.073 110.827 123.944C110.821 123.931 110.821 123.912 110.814 123.899C110.756 123.608 110.691 123.305 110.62 122.982C110.62 122.976 110.62 122.976 110.62 122.969C110.556 122.646 110.484 122.31 110.407 121.962C110.394 121.904 110.381 121.846 110.368 121.787C110.342 121.665 110.316 121.542 110.29 121.419C110.284 121.381 110.271 121.335 110.264 121.297C110.232 121.142 110.2 120.98 110.161 120.819C110.154 120.799 110.154 120.774 110.148 120.754C110.109 120.58 110.077 120.405 110.038 120.231C110.031 120.205 110.025 120.186 110.025 120.16C109.993 119.999 109.954 119.837 109.921 119.669C109.908 119.618 109.902 119.572 109.889 119.521C109.85 119.353 109.818 119.179 109.779 119.011C109.772 118.978 109.766 118.952 109.76 118.92C109.721 118.726 109.675 118.539 109.637 118.339C109.63 118.32 109.63 118.3 109.624 118.281C109.533 117.848 109.436 117.409 109.339 116.957C109.332 116.925 109.326 116.899 109.319 116.867C109.281 116.679 109.242 116.492 109.196 116.305C109.183 116.24 109.171 116.169 109.151 116.105C109.119 115.95 109.086 115.795 109.048 115.64C109.028 115.562 109.015 115.485 108.996 115.407C108.963 115.259 108.931 115.11 108.899 114.962C108.879 114.878 108.866 114.8 108.847 114.716C108.815 114.555 108.776 114.4 108.743 114.238C108.73 114.167 108.711 114.096 108.698 114.025C108.659 113.851 108.62 113.677 108.582 113.496C108.569 113.438 108.556 113.38 108.543 113.315C108.497 113.095 108.446 112.882 108.4 112.663C108.394 112.643 108.394 112.624 108.387 112.605C108.336 112.359 108.277 112.107 108.226 111.862C106.86 105.65 105.307 98.9144 104.109 94.5619C104.038 94.3101 103.973 94.0711 103.909 93.8386L103.501 92.8958L97.9286 79.9999L84.9262 85.5922C84.9262 85.5922 74.325 102.324 68.6166 125.042C68.6166 125.042 80.3181 130.744 95.987 129.982C100.841 129.743 106.077 128.891 111.462 127.05C111.475 127.057 111.475 127.05 111.468 127.037Z" fill="#FFDCF7"/>
<path d="M111.468 127.037C111.462 127.018 111.455 126.992 111.449 126.954C111.436 126.908 111.423 126.844 111.41 126.76C111.397 126.695 111.378 126.618 111.365 126.527C111.358 126.489 111.345 126.443 111.339 126.405C111.332 126.372 111.326 126.334 111.319 126.295C111.293 126.159 111.261 126.011 111.222 125.836C111.216 125.804 111.209 125.772 111.203 125.739C111.183 125.662 111.17 125.578 111.151 125.494C111.151 125.488 111.145 125.475 111.145 125.468C111.125 125.378 111.106 125.287 111.086 125.191C111.073 125.139 111.067 125.087 111.054 125.029C111.041 124.958 111.022 124.887 111.009 124.81C111.002 124.771 110.996 124.739 110.983 124.7C110.963 124.596 110.937 124.487 110.918 124.377C110.918 124.364 110.912 124.351 110.912 124.332C110.886 124.209 110.86 124.073 110.827 123.944C110.821 123.931 110.821 123.912 110.814 123.899C110.756 123.608 110.691 123.305 110.62 122.982C110.62 122.976 110.62 122.976 110.62 122.969C110.556 122.646 110.484 122.31 110.407 121.962C110.394 121.904 110.381 121.845 110.368 121.787C110.342 121.665 110.316 121.542 110.29 121.419C110.284 121.381 110.271 121.335 110.264 121.297C110.232 121.142 110.2 120.98 110.161 120.819C110.154 120.799 110.154 120.774 110.148 120.754C110.109 120.58 110.077 120.405 110.038 120.231C110.031 120.205 110.025 120.186 110.025 120.16C109.992 119.999 109.954 119.837 109.921 119.669C109.908 119.618 109.902 119.572 109.889 119.521C109.85 119.353 109.818 119.178 109.779 119.011C109.772 118.978 109.766 118.952 109.759 118.92C109.721 118.726 109.675 118.539 109.637 118.339C109.63 118.32 109.63 118.3 109.624 118.281C109.533 117.848 109.436 117.409 109.339 116.957C109.332 116.925 109.326 116.899 109.319 116.867C109.281 116.679 109.242 116.492 109.196 116.305C109.183 116.24 109.171 116.169 109.151 116.105C109.119 115.95 109.086 115.795 109.048 115.64C109.028 115.562 109.015 115.485 108.996 115.407C108.963 115.259 108.931 115.11 108.899 114.962C108.879 114.878 108.866 114.8 108.847 114.716C108.815 114.555 108.776 114.4 108.743 114.238C108.73 114.167 108.711 114.096 108.698 114.025C108.659 113.851 108.62 113.677 108.582 113.496C108.569 113.438 108.556 113.379 108.543 113.315C108.497 113.095 108.446 112.882 108.4 112.663C108.394 112.643 108.394 112.624 108.387 112.605C108.336 112.359 108.277 112.107 108.226 111.862C106.86 105.65 105.307 98.9143 104.109 94.5619C104.038 94.31 103.973 94.0711 103.909 93.8386L103.501 92.8958C100.776 91.3266 97.5597 95.0462 95.5468 93.5932C96.6536 99.6053 98.9964 120.502 95.9869 129.989C100.841 129.75 106.077 128.897 111.462 127.057C111.475 127.057 111.475 127.05 111.468 127.037Z" fill="#FFB5E4"/>
<path d="M93.5793 67.4461C93.4434 67.2459 92.4014 54.0465 92.4014 54.0465C92.3108 52.9164 91.4695 52.4643 90.544 53.0455C89.6185 53.6267 88.4082 53.2909 87.8645 52.29L83.2435 43.8111C82.6998 42.8166 82.0267 42.9006 81.742 43.9984L79.5997 52.3417C79.3149 53.4395 78.2729 53.8915 77.2762 53.3426C77.2762 53.3426 74.7845 51.9671 74.6292 52.5612C74.4738 53.1553 76.532 61.053 76.532 61.053C76.8167 62.1508 76.3831 62.8289 75.5676 62.5512C74.7521 62.2735 74.3056 62.9516 74.5774 64.0558C74.5774 64.0558 76.0595 70.055 87.6898 70.2487C99.3201 70.4425 93.5793 67.4461 93.5793 67.4461Z" fill="#2C3036"/>
<path d="M74.5774 64.0623C74.3056 62.9581 74.7521 62.28 75.5676 62.5577C76.3831 62.8354 76.8167 62.1573 76.532 61.0595C76.532 61.0595 74.4738 53.1618 74.6292 52.5677C74.7845 51.9736 77.2762 53.3491 77.2762 53.3491C78.2729 53.898 79.3149 53.4459 79.5997 52.3481L81.742 44.0048C82.0267 42.907 82.6998 42.8231 83.2435 43.8176L87.1397 50.9662L84.3114 47.182C83.7612 46.4523 83.1982 46.6008 83.0623 47.5178L82.0073 54.4662C81.8714 55.3832 81.03 55.874 80.1369 55.5511C80.1369 55.5511 77.9105 54.7504 77.8328 55.2476C77.7552 55.7449 80.2016 61.8215 80.2016 61.8215C80.5446 62.6675 80.234 63.2616 79.522 63.1389C78.8101 63.0162 78.493 63.6167 78.8231 64.4627C78.8231 64.4627 80.6093 69.0864 90.4339 67.8271C91.7089 67.6657 92.7315 67.4913 93.547 67.317C93.5599 67.388 93.5664 67.4397 93.5729 67.4461C93.5729 67.4461 99.3201 70.4554 87.6833 70.2552C76.0595 70.0615 74.5774 64.0623 74.5774 64.0623Z" fill="#181C22"/>
<path d="M92.5697 69.6935C92.5697 69.6935 94.2201 75.3697 94.7573 76.0026C95.288 76.6354 91.8319 75.8993 89.4243 74.3753C87.0167 72.8513 87.4115 72.961 87.3338 72.5477C87.2561 72.1345 87.0037 69.4804 86.2206 68.3567C85.431 67.2331 90.3951 67.6658 90.3951 67.6658L92.5697 69.6935Z" fill="#FFADAF"/>
<path d="M90.408 69.6353L89.955 68.6666C89.955 68.6666 90.4663 68.3825 90.9128 68.1436L92.5697 69.6934C92.5697 69.6934 93.1328 71.6307 93.7088 73.3614C91.3206 72.2506 90.408 69.6353 90.408 69.6353Z" fill="#FF7F84"/>
<path d="M84.8615 66.7617C85.0621 66.3355 85.6317 65.7478 87.1461 66.3032C85.5864 63.9784 84.7385 61.1822 86.0782 60.1038C86.9843 59.3741 89.366 58.625 92.4467 63.0356C94.3689 65.7866 96.1682 69.7903 95.0614 70.5846C94.2395 71.1723 92.382 70.83 90.544 69.6676C89.8903 69.9324 88.7836 70.0938 87.6251 69.6741C86.0912 69.1123 84.4149 67.7174 84.8615 66.7617Z" fill="#FFADAF"/>
<path d="M125.791 77.1908C117.325 66.9747 115.675 59.8584 115.675 59.8584C105.863 68.7958 88.7059 73.258 83.8454 74.4915C78.9848 75.7249 86.9261 83.4676 86.9261 83.4676C85.4375 87.2195 81.5737 92.7408 81.5737 92.7408C82.6157 93.6513 83.7418 94.4069 84.9327 95.0397C102.265 104.223 133.531 85.4114 133.531 85.4114C130.464 82.5183 127.914 79.7609 125.791 77.1908Z" fill="#FFDCF7"/>
<path d="M133.531 85.4114C130.464 82.5184 127.914 79.7609 125.791 77.1908C108.433 96.5961 88.3111 95.3949 84.9327 95.0398C102.265 104.223 133.531 85.4114 133.531 85.4114Z" fill="#FFB5E4"/>
<path d="M190.939 155.903C190.939 155.903 227.946 149.329 214.911 128.2L207.326 127.05L207.164 131.106L205.753 140.65C205.753 140.65 200.181 147.844 199.165 148.47C198.148 149.097 185.806 155.219 185.806 155.219L190.939 155.903Z" fill="#8E00DF"/>
<path d="M202.672 92.0047L207.85 83.8745C207.85 83.8745 232.444 103.357 237.829 130.467C237.829 130.467 239.149 135.639 234.476 131.848C234.237 131.655 233.984 131.442 233.712 131.203C233.712 131.203 206.789 107.774 196.375 101.904L202.672 92.0047Z" fill="#FFADAF"/>
<path d="M196.369 101.904L202.672 92.0046C207.578 96.1182 226.341 112.695 234.47 131.842C234.23 131.648 233.978 131.435 233.706 131.196C233.706 131.203 206.789 107.774 196.369 101.904Z" fill="#FF7F84"/>
<path d="M237.317 129.575C237.317 129.575 238.767 131.015 240.676 131.041C242.586 131.067 243.006 131.958 242.734 132.843C242.56 133.431 240.566 137.182 234.826 132.133L236.068 129.033L237.317 129.575Z" fill="#FFADAF"/>
<path d="M238.092 130.543C238.663 130.176 238.984 129.659 238.81 129.389C238.635 129.12 238.031 129.199 237.46 129.566C236.89 129.933 236.568 130.45 236.743 130.719C236.917 130.989 237.521 130.91 238.092 130.543Z" fill="#FFADAF"/>
<path d="M194.045 72.1344C194.045 72.1344 205.384 72.7414 223.034 96.3442C223.034 96.3442 222.244 102.279 217.157 108.207C214.659 104.287 207.643 95.2399 191.644 86.1411L191.896 102.589C190.634 101.865 189.398 101.342 188.233 101.11L192.88 75.5118L194.045 72.1344Z" fill="#FFB5E4"/>
<path d="M217.157 108.207C214.678 111.093 211.183 113.98 206.264 116.182C206.264 116.182 198.744 106.502 191.896 102.589L191.644 86.1411C207.643 95.24 214.659 104.287 217.157 108.207Z" fill="#FFB5E4"/>
<path d="M216.438 131.338C206.905 125.83 184.214 127.102 184.214 127.102C192.867 100.774 178.48 95.3303 178.48 95.3303C193.786 87.4197 193.683 69.5836 193.683 69.5836C193.683 69.5836 223.241 78.1271 216.438 131.338Z" fill="#FFDCF7"/>
<path d="M194.573 64.9226C195.604 64.3361 196.145 63.3458 195.782 62.7107C195.419 62.0755 194.29 62.0361 193.259 62.6226C192.228 63.209 191.686 64.1993 192.049 64.8345C192.412 65.4696 193.542 65.509 194.573 64.9226Z" fill="#FFADAF"/>
<path d="M189.722 67.6593C189.722 67.6593 190.052 68.7377 188.893 74.0782C188.893 74.0782 191.994 75.0985 193.857 71.9924C193.857 71.9924 193.508 67.6206 194.77 63.6168L191.586 63.9591L189.722 67.6593Z" fill="#FFADAF"/>
<path d="M193.133 65.4443L192.46 65.6897L190.155 66.8004L189.722 67.6658C189.722 67.6658 189.929 68.3567 189.431 71.3337C192.259 69.8614 193.133 65.4443 193.133 65.4443Z" fill="#FF7F84"/>
<path d="M194.052 64.1075C192.265 67.6592 187.845 69.9581 186.958 69.7902C185.994 69.603 184.544 66.1675 186.324 62.6158C188.11 59.0641 190.142 57.2107 193.417 56.9331C197.495 56.5908 195.838 60.5558 194.052 64.1075Z" fill="#FFADAF"/>
<path d="M200.55 79.7609C200.55 79.7609 197.896 71.2109 193.45 69.5771C189.003 67.9433 173.302 62.0733 164.953 52.7097C164.953 52.7097 163.025 60.9949 147.246 73.0578C147.246 73.0578 167.361 101.878 193.786 86.9611C193.786 86.9611 201.579 83.4353 200.55 79.7609Z" fill="#FFDCF7"/>
<path d="M193.786 86.9612C166.429 93.2703 154.456 67.7819 154.456 67.7819L153.899 67.4849C152.009 69.2284 149.815 71.0947 147.246 73.0578C147.246 73.0578 167.361 101.872 193.786 86.9612Z" fill="#FFB5E4"/>
<path d="M150.533 236.947C150.533 236.947 150.171 242.268 156.831 242.094C158.578 242.042 153.265 237.851 150.533 236.947Z" fill="#2C3036"/>
<path d="M207.74 209.45C207.74 209.45 203.553 218.917 206.387 216.114C209.222 213.312 211.384 213.034 207.74 209.45Z" fill="#2C3036"/>
<path d="M221.26 101.807C221.26 101.807 220.011 104.668 218.057 107.077L218.328 108.452L220.315 110.222L220.781 110.299C220.788 110.293 218.341 107.794 221.26 101.807Z" fill="#FF7F84"/>
<path d="M136.69 18.3292L140.528 20.2148C140.994 20.4473 141.524 20.0405 141.421 19.5303L140.586 15.3457C140.547 15.1456 140.605 14.9325 140.754 14.7839L143.738 11.723C144.1 11.3485 143.88 10.7221 143.362 10.6639L139.11 10.1602C138.903 10.1344 138.722 10.0117 138.631 9.83091L136.638 6.05318C136.392 5.59468 135.732 5.61405 135.512 6.08546L133.719 9.96006C133.635 10.1473 133.46 10.2829 133.253 10.3152L129.04 11.0385C128.528 11.1289 128.341 11.7617 128.723 12.1169L131.868 15.0164C132.017 15.1585 132.095 15.3651 132.062 15.5653L131.454 19.7886C131.383 20.3052 131.926 20.6798 132.386 20.4279L136.12 18.3421C136.288 18.2452 136.509 18.2388 136.69 18.3292Z" fill="#FF4880"/>
<path d="M152.973 17.154C152.889 17.0119 152.76 16.9086 152.624 16.8182C152.152 16.5082 151.686 16.1853 151.213 15.9399C150.741 15.6881 150.275 15.4879 149.815 15.3006C149.252 15.0746 148.974 15.32 148.838 15.7204C148.786 15.8754 148.896 16.1078 149.123 16.3209C149.239 16.4307 149.369 16.534 149.485 16.6051C150.423 17.1733 151.362 17.7287 152.236 18.0258C152.708 18.1872 152.941 17.9935 153.045 17.6318C153.071 17.5479 153.077 17.451 153.045 17.3219C153.032 17.2637 153.006 17.2056 152.973 17.154Z" fill="#B100FF"/>
<path d="M147.751 1.50055C147.608 1.60387 147.472 1.71365 147.336 1.83635C146.987 2.14632 146.657 2.5144 146.365 2.92124C146.158 3.21183 145.66 3.87051 145.673 4.23214C145.673 4.29026 145.692 4.34838 145.712 4.39358C146.01 5.00706 146.844 4.54211 147.31 4.17402C148.087 3.56055 148.864 2.62418 149.369 1.64908C149.492 1.41014 149.479 1.28099 149.33 1.17121C149.026 0.95165 148.747 0.912904 148.352 1.11955C148.152 1.22933 147.951 1.35203 147.751 1.50055Z" fill="#B100FF"/>
<path d="M150.889 10.0053C150.883 10.2055 151.213 10.354 151.614 10.3476C151.724 10.3476 151.847 10.3411 151.932 10.3218C152.87 10.1022 153.789 9.86326 154.449 9.4758C154.663 9.3531 154.825 9.14646 154.727 8.93981C154.617 8.70734 154.132 8.69442 153.86 8.759C153.09 8.95273 152.313 9.14646 151.595 9.37248C151.181 9.50809 150.902 9.72119 150.889 10.0053Z" fill="#B100FF"/>
<path d="M120.341 20.3698C120.393 20.2536 120.503 20.1567 120.626 20.0792C121.047 19.7951 121.448 19.5109 121.875 19.2849C122.309 19.0525 122.742 18.8587 123.176 18.6844C123.707 18.4648 124.056 18.6521 124.302 18.9685C124.393 19.0912 124.341 19.2849 124.153 19.4722C124.056 19.5691 123.953 19.6595 123.843 19.7241C123.001 20.2407 122.16 20.7444 121.325 21.035C120.872 21.1899 120.581 21.0479 120.387 20.7573C120.341 20.6927 120.302 20.6087 120.309 20.5054C120.309 20.4602 120.322 20.415 120.341 20.3698Z" fill="#B100FF"/>
<path d="M123.797 4.09649C123.92 4.14169 124.037 4.19335 124.147 4.25147C124.445 4.4 124.71 4.57436 124.949 4.781C125.118 4.92307 125.525 5.25241 125.493 5.45906C125.487 5.49134 125.474 5.52363 125.448 5.55592C125.157 5.92401 124.438 5.73028 124.043 5.56238C123.383 5.2847 122.749 4.81975 122.354 4.31605C122.257 4.19335 122.276 4.11586 122.412 4.04483C122.691 3.8963 122.943 3.8511 123.28 3.93505C123.454 3.97379 123.629 4.03191 123.797 4.09649Z" fill="#B100FF"/>
<path d="M122.257 11.8005C122.341 12.0588 122.192 12.3623 121.94 12.472C121.869 12.5043 121.798 12.5366 121.733 12.5366C121.06 12.5302 120.4 12.4914 119.836 12.1815C119.655 12.0846 119.474 11.8521 119.455 11.5551C119.435 11.2128 119.733 11.0449 119.927 11.0578C120.484 11.0772 121.04 11.103 121.577 11.187C121.882 11.2257 122.141 11.4194 122.257 11.8005Z" fill="#B100FF"/>
<path d="M144.644 29.7722C145.214 29.4049 145.536 28.8885 145.361 28.6187C145.187 28.349 144.583 28.428 144.012 28.7953C143.442 29.1626 143.12 29.679 143.295 29.9488C143.469 30.2185 144.073 30.1395 144.644 29.7722Z" fill="#FFADAF"/>
<path d="M179.58 95.8987C182.771 97.836 191.372 105.327 184.214 127.096C184.214 127.096 186.473 126.966 189.858 126.966C195.812 106.877 183.431 98.0878 179.58 95.8987Z" fill="#FFB5E4"/>
<defs>
<linearGradient id="paint0_linear" x1="34.5255" y1="135.42" x2="32.5796" y2="149.683" gradientUnits="userSpaceOnUse">
<stop offset="0.0495" stop-color="#FFD7F8"/>
<stop offset="1" stop-color="#FFB9EF"/>
</linearGradient>
<linearGradient id="paint1_linear" x1="206.198" y1="8.78098" x2="203.772" y2="31.2104" gradientUnits="userSpaceOnUse">
<stop offset="0.0495" stop-color="#FFD7F8"/>
<stop offset="1" stop-color="#FFB9EF"/>
</linearGradient>
</defs>
</svg>
